<svg width="392" height="392" viewBox="0 0 392 392" fill="none" xmlns="http://www.w3.org/2000/svg">
<path opacity="0.1" d="M118.438 273.471C75.6265 230.66 75.6265 161.249 118.438 118.438C161.249 75.6267 230.66 75.6267 273.471 118.438C316.283 161.249 316.283 230.66 273.471 273.471C230.66 316.283 161.249 316.283 118.438 273.471Z" fill="#3760CA"/>
<path opacity="0.1" d="M97.9774 293.932C43.866 239.821 43.866 152.089 97.9774 97.9774C152.089 43.866 239.821 43.866 293.932 97.9774C348.043 152.089 348.043 239.821 293.932 293.932C239.821 348.043 152.089 348.043 97.9774 293.932Z" fill="#3760CA"/>
<path opacity="0.1" d="M32.6259 225.813C16.1522 135.612 75.9202 49.135 166.121 32.6613C256.323 16.1876 342.8 75.9557 359.274 166.157C375.747 256.358 315.979 342.835 225.778 359.309C135.577 375.783 49.0996 316.015 32.6259 225.813Z" fill="#3760CA"/>
<path d="M218.22 105.588C218.677 105.708 219.154 105.737 219.623 105.672C220.092 105.607 220.543 105.451 220.951 105.211C221.359 104.971 221.715 104.653 221.999 104.274C222.284 103.896 222.491 103.465 222.608 103.007L231.229 67.9537C231.376 67.0505 231.177 66.1253 230.672 65.3622C230.167 64.5992 229.393 64.0544 228.504 63.8363C227.615 63.6182 226.677 63.7429 225.876 64.1854C225.075 64.6279 224.471 65.3559 224.182 66.2243L215.561 101.278C215.358 102.201 215.521 103.167 216.018 103.971C216.514 104.776 217.304 105.356 218.22 105.588Z" fill="white"/>
<path d="M171.008 106.75C171.618 106.904 172.257 106.904 172.867 106.75C173.341 106.618 173.783 106.391 174.166 106.082C174.549 105.773 174.865 105.39 175.094 104.955C175.324 104.52 175.462 104.043 175.501 103.552C175.539 103.062 175.478 102.569 175.319 102.103L165.252 67.4374C165.146 66.9497 164.94 66.4892 164.648 66.0844C164.355 65.6796 163.983 65.3393 163.554 65.0845C163.124 64.8298 162.647 64.6661 162.152 64.6037C161.657 64.5412 161.154 64.5813 160.675 64.7215C160.195 64.8617 159.75 65.099 159.367 65.4186C158.983 65.7382 158.67 66.1332 158.445 66.5792C158.221 67.0252 158.091 67.5126 158.063 68.0111C158.035 68.5095 158.11 69.0084 158.283 69.4766L168.35 104.117C168.516 104.754 168.85 105.335 169.318 105.798C169.786 106.261 170.37 106.59 171.008 106.75Z" fill="white"/>
<path d="M130.664 131.349C131.411 131.484 132.181 131.383 132.868 131.059C133.554 130.734 134.122 130.204 134.491 129.541C134.861 128.878 135.015 128.116 134.93 127.362C134.845 126.608 134.527 125.899 134.02 125.335L107.975 100.348C107.268 99.827 106.396 99.5793 105.52 99.6508C104.644 99.7224 103.824 100.108 103.21 100.738C102.597 101.367 102.232 102.197 102.182 103.074C102.133 103.951 102.403 104.817 102.942 105.511L129.012 130.497C129.483 130.915 130.051 131.208 130.664 131.349Z" fill="white"/>
<path d="M72.9994 164.208L108.053 172.829C108.991 173.059 109.981 172.906 110.806 172.405C111.632 171.904 112.224 171.096 112.454 170.158C112.683 169.22 112.53 168.229 112.029 167.404C111.528 166.579 110.72 165.986 109.782 165.757L74.6514 157.161C73.7274 156.926 72.7476 157.065 71.9257 157.548C71.1037 158.032 70.5062 158.82 70.2633 159.743C70.1445 160.216 70.1213 160.708 70.195 161.19C70.2688 161.672 70.4381 162.134 70.6929 162.55C70.9477 162.966 71.283 163.327 71.6791 163.612C72.0751 163.896 72.524 164.099 72.9994 164.208Z" fill="white"/>
<path d="M74.6512 230.107C75.268 230.275 75.9186 230.275 76.5354 230.107L111.176 220.04C111.635 219.908 112.064 219.687 112.438 219.389C112.811 219.091 113.123 218.722 113.354 218.304C113.821 217.459 113.934 216.464 113.667 215.536C113.4 214.608 112.775 213.825 111.93 213.358C111.086 212.891 110.09 212.778 109.162 213.045L74.4963 223.112C74.0293 223.238 73.5916 223.454 73.2087 223.75C72.8258 224.045 72.5052 224.413 72.2652 224.833C72.0253 225.253 71.8708 225.716 71.8107 226.196C71.7506 226.676 71.7861 227.163 71.9151 227.629C72.1087 228.249 72.4646 228.805 72.9456 229.241C73.4267 229.676 74.0156 229.976 74.6512 230.107Z" fill="white"/>
<path d="M288.894 282.222C289.512 282.369 290.158 282.353 290.769 282.177C291.379 282 291.934 281.669 292.379 281.216C292.719 280.877 292.989 280.475 293.173 280.032C293.358 279.589 293.452 279.114 293.452 278.634C293.452 278.155 293.358 277.68 293.173 277.237C292.989 276.794 292.719 276.391 292.379 276.053L266.334 251.067C266.015 250.656 265.612 250.318 265.151 250.077C264.69 249.835 264.183 249.695 263.664 249.665C263.145 249.636 262.625 249.719 262.14 249.907C261.655 250.096 261.217 250.386 260.854 250.758C260.49 251.131 260.211 251.577 260.035 252.066C259.859 252.556 259.79 253.077 259.832 253.596C259.874 254.114 260.027 254.617 260.281 255.072C260.534 255.526 260.882 255.921 261.301 256.229L287.345 281.216C287.769 281.675 288.302 282.021 288.894 282.222Z" fill="white"/>
<path d="M285.461 215.678L320.489 224.377C321.392 224.523 322.317 224.324 323.08 223.819C323.843 223.314 324.388 222.54 324.606 221.652C324.824 220.763 324.699 219.825 324.257 219.024C323.814 218.223 323.086 217.618 322.218 217.33L287.191 208.709C286.267 208.48 285.29 208.622 284.47 209.104C283.65 209.587 283.051 210.371 282.803 211.29C282.683 211.753 282.658 212.235 282.728 212.708C282.797 213.18 282.961 213.635 283.209 214.043C283.456 214.452 283.783 214.807 284.17 215.088C284.557 215.369 284.996 215.569 285.461 215.678Z" fill="white"/>
<path d="M284.3 168.545C284.918 168.699 285.565 168.699 286.184 168.545L320.85 158.478C321.714 158.158 322.425 157.523 322.839 156.699C323.254 155.876 323.34 154.926 323.081 154.042C322.822 153.158 322.238 152.404 321.445 151.934C320.653 151.464 319.711 151.312 318.811 151.508L284.171 161.472C283.401 161.683 282.722 162.14 282.238 162.775C281.754 163.409 281.492 164.185 281.492 164.983C281.492 165.78 281.754 166.556 282.238 167.19C282.722 167.825 283.401 168.282 284.171 168.493L284.3 168.545Z" fill="white"/>
<path d="M259.7 128.2C260.303 128.34 260.931 128.321 261.524 128.145C262.117 127.968 262.654 127.64 263.081 127.193L288.171 101.148C288.856 100.464 289.24 99.5353 289.24 98.5672C289.24 97.599 288.856 96.6705 288.171 95.9859C287.486 95.3013 286.558 94.9167 285.59 94.9167C284.622 94.9167 283.693 95.3013 283.009 95.9859L257.919 122.186C257.572 122.52 257.297 122.921 257.108 123.365C256.92 123.808 256.823 124.285 256.823 124.767C256.823 125.249 256.92 125.725 257.108 126.169C257.297 126.612 257.572 127.013 257.919 127.348C258.411 127.808 259.033 128.106 259.7 128.2Z" fill="white"/>
<path d="M174.39 324.529C180.353 322.825 181.566 317.921 177.1 313.61C174.54 311.392 171.491 309.81 168.203 308.994C164.915 308.177 161.481 308.15 158.18 308.912C152.217 310.642 151.004 315.52 155.47 319.831C158.03 322.049 161.079 323.631 164.367 324.447C167.655 325.264 171.089 325.292 174.39 324.529Z" fill="#263238"/>
<path d="M153.018 316.114L155.186 316.656C156.095 315.623 157.304 314.901 158.645 314.591C161.344 313.957 164.156 313.973 166.848 314.637C169.541 315.301 172.037 316.595 174.132 318.411C175.158 319.319 175.887 320.516 176.223 321.844L178.391 322.386L174.932 325.716C174.071 326.468 173.046 327.008 171.938 327.291C169.238 327.927 166.426 327.912 163.734 327.248C161.041 326.584 158.545 325.289 156.451 323.471C155.602 322.706 154.947 321.75 154.54 320.683L153.018 316.114Z" fill="#263238"/>
<path d="M179.785 322.128C188.613 319.547 190.394 312.345 183.76 305.97C179.962 302.709 175.451 300.388 170.59 299.195C165.728 298.003 160.655 297.971 155.779 299.104C146.951 301.685 145.17 308.887 151.804 315.262C155.598 318.528 160.11 320.853 164.972 322.046C169.834 323.239 174.91 323.267 179.785 322.128Z" fill="#C4C4C4"/>
<path d="M180.947 319.65C190.11 317.069 191.943 309.48 185.077 302.898C181.145 299.498 176.465 297.073 171.419 295.822C166.374 294.571 161.104 294.528 156.038 295.696C146.901 298.278 145.042 305.867 151.934 312.474C155.866 315.866 160.542 318.284 165.583 319.531C170.624 320.777 175.887 320.818 180.947 319.65Z" fill="#37474F"/>
<path d="M182.031 316.811C191.427 314.101 193.311 306.486 186.264 299.646C182.229 296.17 177.431 293.694 172.26 292.421C167.089 291.147 161.69 291.111 156.502 292.315C147.107 295.051 145.222 302.64 152.269 309.506C156.305 312.979 161.104 315.451 166.276 316.72C171.447 317.99 176.845 318.021 182.031 316.811Z" fill="#C4C4C4"/>
<path d="M183.063 313.997C192.691 311.21 194.627 303.311 187.4 296.393C183.263 292.831 178.344 290.294 173.043 288.989C167.742 287.683 162.208 287.647 156.89 288.882C147.287 291.67 145.351 299.568 152.579 306.486C156.712 310.047 161.626 312.582 166.923 313.888C172.219 315.193 177.749 315.23 183.063 313.997Z" fill="#37474F"/>
<path d="M184.199 311.184C194.059 308.319 196.047 300.265 188.639 293.115C184.409 289.459 179.376 286.852 173.949 285.506C168.522 284.161 162.854 284.115 157.406 285.372C147.545 288.237 145.584 296.316 152.966 303.44C157.196 307.097 162.229 309.703 167.656 311.049C173.083 312.394 178.751 312.441 184.199 311.184Z" fill="#C4C4C4"/>
<path d="M185.283 308.345C195.376 305.402 197.415 297.142 189.826 289.889C185.482 286.179 180.325 283.545 174.773 282.199C169.222 280.854 163.431 280.835 157.871 282.145C147.778 285.088 145.739 293.348 153.328 300.601C157.672 304.31 162.829 306.945 168.38 308.29C173.932 309.635 179.723 309.654 185.283 308.345Z" fill="#37474F"/>
<path d="M150.798 277.628C151.65 274.143 154.825 271.226 160.091 269.678C165.937 268.313 172.023 268.347 177.854 269.778C183.685 271.209 189.096 273.996 193.647 277.912C197.596 281.706 199.042 285.655 198.19 289.269L196.202 297.297C195.35 300.807 192.175 303.724 186.91 305.247C181.065 306.617 174.98 306.588 169.149 305.162C163.318 303.735 157.906 300.952 153.354 297.039C149.404 293.244 147.959 289.166 148.811 285.681L150.798 277.628Z" fill="#3760CA"/>
<path d="M214.038 121.979C232.904 126.598 249.164 138.518 259.246 155.12C269.327 171.721 272.406 191.646 267.806 210.516C253.919 266.993 205.004 264.928 199.429 287.695C198.525 291.308 195.247 294.354 189.775 295.955C183.724 297.359 177.427 297.318 171.395 295.833C165.362 294.349 159.765 291.463 155.057 287.411C150.953 283.461 149.43 279.254 150.334 275.64C155.909 252.874 111.615 232.043 125.502 175.54C130.167 156.712 142.105 140.502 158.701 130.463C175.297 120.423 195.197 117.372 214.038 121.979Z" fill="white"/>
<path d="M187.297 293.838C196.461 291.257 198.293 283.668 191.427 277.086C187.498 273.689 182.823 271.267 177.782 270.016C172.741 268.765 167.476 268.72 162.414 269.884C153.251 272.465 151.418 280.054 158.284 286.662C162.218 290.05 166.894 292.466 171.934 293.712C176.975 294.959 182.237 295.002 187.297 293.838Z" fill="#F5F5F5"/>
<path opacity="0.25" d="M155.444 283.203C156.229 284.489 157.174 285.668 158.258 286.714C162.2 290.095 166.883 292.502 171.927 293.74C176.972 294.977 182.237 295.011 187.297 293.838C188.743 293.433 190.125 292.825 191.401 292.031C190.635 290.74 189.697 289.559 188.613 288.521C184.671 285.139 179.988 282.732 174.943 281.495C169.899 280.257 164.634 280.223 159.574 281.396C158.116 281.79 156.724 282.399 155.444 283.203Z" fill="#3760CA"/>
<path d="M155.444 283.203C156.229 284.489 157.174 285.668 158.258 286.714C162.2 290.095 166.883 292.502 171.927 293.74C176.972 294.977 182.237 295.011 187.297 293.838C188.743 293.433 190.125 292.825 191.401 292.031C190.635 290.74 189.697 289.559 188.613 288.521C184.671 285.139 179.988 282.732 174.943 281.495C169.899 280.257 164.634 280.223 159.574 281.396C158.116 281.79 156.724 282.399 155.444 283.203Z" fill="#EBEBEB"/>
<path opacity="0.1" d="M170.88 141.803C171.673 142.415 172.384 143.127 172.997 143.92C174.074 145.431 174.741 147.196 174.931 149.042C175.121 150.888 174.828 152.752 174.081 154.451C171.5 161.085 163.756 163.744 158.593 168.157C152.943 172.992 148.189 178.785 144.551 185.271C143.405 187.685 142.003 189.97 140.37 192.086C139.393 193.141 138.056 193.793 136.623 193.912C135.19 194.031 133.764 193.61 132.626 192.731C131.558 191.557 130.761 190.161 130.293 188.645C129.825 187.128 129.696 185.527 129.916 183.955C130.954 169.165 137.814 155.39 148.991 145.649C155.083 139.996 163.42 136.202 170.88 141.803Z" fill="#3760CA"/>
<path opacity="0.1" d="M139.44 203.572C139.514 204.708 139.347 205.847 138.952 206.914C138.556 207.982 137.94 208.954 137.143 209.767C136.263 210.637 135.076 211.125 133.839 211.125C132.602 211.125 131.415 210.637 130.535 209.767C129.665 208.849 129.039 207.728 128.715 206.506C128.39 205.284 128.377 204 128.677 202.772C128.955 201.413 129.719 200.202 130.827 199.366C131.934 198.529 133.307 198.125 134.691 198.229C135.952 198.49 137.095 199.152 137.95 200.114C138.806 201.077 139.328 202.289 139.44 203.572Z" fill="#3760CA"/>
<path d="M164.788 286.946L165.614 287.153C171.835 261.831 174.261 245.595 173.719 232.947C173.602 229.669 173.17 226.41 172.429 223.215C178.815 222.706 185.019 220.84 190.627 217.743C194.167 223.088 198.804 227.62 204.23 231.036C202.088 233.472 200.186 236.108 198.551 238.909C192.175 249.931 186.78 265.419 180.482 290.74L181.308 290.947C187.529 265.702 192.872 250.267 199.196 239.322C200.825 236.477 202.727 233.797 204.875 231.32C205.602 231.732 206.352 232.102 207.121 232.43C215.045 235.837 220.466 234.65 222.866 232.43C223.696 231.669 224.272 230.672 224.516 229.574C224.761 228.475 224.662 227.328 224.234 226.287C223.83 225.24 223.123 224.338 222.203 223.694C221.284 223.05 220.194 222.695 219.072 222.673C215.329 222.312 210.063 224.325 204.643 230.417C199.271 227.083 194.684 222.627 191.194 217.356C192.286 216.716 193.306 215.963 194.24 215.11C199.583 210.18 200.59 205.043 199.79 201.868C199.541 200.809 199.005 199.838 198.24 199.064C197.474 198.289 196.51 197.741 195.453 197.48C194.402 197.222 193.299 197.262 192.269 197.594C191.239 197.927 190.322 198.54 189.62 199.365C187.4 201.791 185.929 206.824 188.355 213.665C188.808 214.85 189.37 215.99 190.033 217.072C184.465 220.133 178.302 221.956 171.964 222.415C169.925 214.671 166.182 210.386 162.723 208.967C161.724 208.48 160.603 208.299 159.501 208.446C158.399 208.593 157.365 209.061 156.528 209.793C155.664 210.518 155.042 211.49 154.747 212.579C154.451 213.669 154.497 214.822 154.876 215.885C155.961 219.008 160.194 222.57 168.789 223.241C169.615 223.241 170.441 223.241 171.37 223.241C172.139 226.432 172.58 229.692 172.687 232.972C173.41 245.543 170.983 261.702 164.788 286.946ZM171.345 222.415C170.605 222.454 169.864 222.454 169.125 222.415C160.916 221.796 156.916 218.492 155.935 215.626C155.606 214.725 155.566 213.744 155.821 212.819C156.075 211.893 156.611 211.071 157.354 210.464C158.07 209.838 158.955 209.44 159.898 209.321C160.84 209.201 161.797 209.366 162.646 209.793C165.743 210.929 169.331 214.929 171.345 222.338V222.415ZM220.13 223.783C220.898 223.933 221.615 224.277 222.211 224.784C222.808 225.29 223.264 225.941 223.537 226.674C223.884 227.55 223.962 228.509 223.759 229.429C223.557 230.349 223.084 231.187 222.402 231.837C220.182 233.902 215.097 234.986 207.559 231.837C206.888 231.553 206.243 231.217 205.572 230.856C210.734 225.229 215.897 223.344 219.149 223.628L220.13 223.783ZM195.402 198.28C196.313 198.496 197.145 198.964 197.802 199.63C198.46 200.297 198.916 201.135 199.119 202.049C200.074 205.74 197.983 210.619 193.956 214.465C193.061 215.278 192.083 215.996 191.04 216.607C190.403 215.577 189.867 214.488 189.439 213.355C187.555 208.012 187.968 202.746 190.523 199.907C191.105 199.206 191.866 198.677 192.726 198.377C193.585 198.077 194.511 198.017 195.402 198.203V198.28Z" fill="#C4C4C4"/>
</svg>
