<svg width="301" height="444" viewBox="0 0 301 444" fill="none" xmlns="http://www.w3.org/2000/svg">
<path d="M168.508 443.23C169.269 443.227 170.001 442.917 170.559 442.363C171.116 441.809 171.459 441.051 171.518 440.239L175.935 372.894C175.985 371.423 176.314 369.979 176.902 368.649C177.49 367.318 178.324 366.13 179.355 365.156L289.175 296.138C289.402 296.663 289.528 297.232 289.546 297.811L293.983 359.676C294.012 360.099 294.119 360.512 294.298 360.89C294.476 361.269 294.723 361.606 295.023 361.883C295.323 362.16 295.672 362.37 296.048 362.503C296.425 362.636 296.822 362.688 297.217 362.656C297.612 362.625 297.998 362.51 298.352 362.319C298.706 362.128 299.021 361.864 299.28 361.543C299.538 361.221 299.735 360.849 299.859 360.446C299.983 360.043 300.032 359.618 300.002 359.195L295.566 297.309C295.581 295.895 295.254 294.501 294.617 293.263C293.98 292.024 293.054 290.983 291.93 290.24C291.013 289.736 289.989 289.5 288.959 289.555C287.93 289.61 286.932 289.954 286.067 290.553L176.247 359.571C172.827 361.663 170.189 366.975 169.817 372.434L165.4 439.779C165.371 440.202 165.42 440.627 165.545 441.03C165.67 441.433 165.868 441.805 166.127 442.126C166.387 442.446 166.704 442.709 167.058 442.898C167.413 443.088 167.8 443.2 168.195 443.23H168.508Z" fill="#263238"/>
<path d="M4.43308 341.94C5.19545 341.942 5.93013 341.635 6.48879 341.08C7.04745 340.525 7.38841 339.763 7.44287 338.95L11.8013 271.584C11.8472 270.115 12.1745 268.673 12.7628 267.345C13.3511 266.018 14.188 264.834 15.2215 263.866L124.963 194.66C125.19 195.186 125.316 195.755 125.334 196.333L129.751 258.219C129.814 259.074 130.19 259.866 130.799 260.423C131.407 260.98 132.198 261.256 132.996 261.189C133.794 261.123 134.535 260.72 135.055 260.069C135.576 259.417 135.833 258.572 135.771 257.718L131.354 195.852C131.358 194.438 131.026 193.046 130.39 191.806C129.754 190.566 128.835 189.519 127.719 188.762C126.8 188.262 125.775 188.029 124.745 188.088C123.716 188.146 122.719 188.495 121.855 189.097L12.0944 258.303C8.67417 260.395 6.03569 265.707 5.68389 271.166L1.24734 338.51C1.21808 338.934 1.26725 339.359 1.39204 339.762C1.51682 340.164 1.71476 340.537 1.97447 340.857C2.23418 341.178 2.55056 341.441 2.9054 341.63C3.26025 341.82 3.64656 341.932 4.04217 341.961L4.43308 341.94Z" fill="#263238"/>
<path d="M162.156 372.371C158.513 372.44 154.913 371.511 151.7 369.673L5.25409 279.26C3.70072 278.582 2.37132 277.424 1.43553 275.934C0.499729 274.444 0 272.689 0 270.894C0 269.099 0.499729 267.344 1.43553 265.854C2.37132 264.364 3.70072 263.206 5.25409 262.528L125.921 186.566C129.148 184.784 132.726 183.853 136.358 183.853C139.989 183.853 143.568 184.784 146.794 186.566L293.24 277.001C294.793 277.679 296.123 278.837 297.059 280.327C297.994 281.817 298.494 283.571 298.494 285.367C298.494 287.162 297.994 288.916 297.059 290.406C296.123 291.896 294.793 293.054 293.24 293.732L172.593 369.694C169.383 371.522 165.791 372.444 162.156 372.371ZM136.358 190.415C133.802 190.348 131.272 190.982 129.009 192.255L8.36164 268.217C7.03262 269.032 6.21181 270.036 6.21181 270.852C6.21181 271.668 7.03262 272.672 8.36164 273.508L154.807 363.922C157.095 365.134 159.613 365.766 162.166 365.766C164.719 365.766 167.237 365.134 169.524 363.922L290.191 287.96C291.501 287.144 292.321 286.14 292.321 285.325C292.321 284.509 291.501 283.505 290.191 282.69L143.726 192.255C141.452 190.995 138.917 190.376 136.358 190.456V190.415Z" fill="#37474F"/>
<path d="M58.7077 225.593C58.1438 225.591 57.5974 225.383 57.1599 225.002C56.7223 224.622 56.4201 224.092 56.3038 223.501L46.2971 174.394C46.2155 174.051 46.199 173.695 46.2489 173.345C46.2987 172.996 46.4137 172.661 46.5871 172.36C46.7605 172.059 46.9886 171.798 47.258 171.594C47.5275 171.389 47.8326 171.245 48.1553 171.169C48.478 171.093 48.8116 171.087 49.1364 171.152C49.4611 171.217 49.7702 171.352 50.0455 171.547C50.3207 171.743 50.5563 171.996 50.7383 172.291C50.9204 172.586 51.0451 172.917 51.105 173.265L61.1312 222.497C61.1966 222.841 61.1979 223.195 61.135 223.539C61.072 223.883 60.9461 224.21 60.7644 224.502C60.5827 224.793 60.3489 225.043 60.0764 225.238C59.804 225.432 59.4982 225.567 59.1768 225.635C59.0195 225.637 58.8624 225.623 58.7077 225.593Z" fill="#37474F"/>
<path d="M84.4673 209.677C83.9034 209.676 83.357 209.467 82.9195 209.086C82.4819 208.706 82.1798 208.176 82.0634 207.585L72.0566 158.52C71.9689 158.175 71.9479 157.814 71.9948 157.459C72.0417 157.105 72.1555 156.765 72.3293 156.459C72.5032 156.153 72.7334 155.889 73.0059 155.681C73.2784 155.474 73.5875 155.328 73.9144 155.253C74.2413 155.177 74.5791 155.174 74.9073 155.243C75.2354 155.312 75.547 155.452 75.8231 155.654C76.0991 155.856 76.3338 156.116 76.5129 156.418C76.6919 156.72 76.8116 157.058 76.8646 157.411L86.8908 206.456C86.959 206.8 86.9623 207.154 86.9005 207.499C86.8386 207.844 86.713 208.173 86.5309 208.465C86.3488 208.757 86.1139 209.008 85.8401 209.201C85.5663 209.395 85.259 209.528 84.9364 209.593L84.4673 209.677Z" fill="#37474F"/>
<path d="M114.917 144.633C114.86 144.176 114.694 143.743 114.433 143.377C114.173 143.01 113.828 142.722 113.432 142.541L100.533 134.573C99.4289 133.967 98.2063 133.651 96.9659 133.651C95.7255 133.651 94.5028 133.967 93.399 134.573L5.27357 188.951C4.86939 189.145 4.52067 189.451 4.26313 189.836C4.00558 190.222 3.84844 190.674 3.80774 191.147V195.329C3.84844 195.802 4.00558 196.254 4.26313 196.64C4.52067 197.025 4.86939 197.331 5.27357 197.525L18.1924 205.515C19.2936 206.117 20.5127 206.431 21.7494 206.431C22.9862 206.431 24.2052 206.117 25.3065 205.515L113.432 151.137C113.841 150.947 114.195 150.644 114.456 150.257C114.718 149.871 114.877 149.416 114.917 148.941V144.633Z" fill="#37474F"/>
<path d="M113.432 142.437L100.533 134.468C99.429 133.863 98.2064 133.547 96.9659 133.547C95.7255 133.547 94.5029 133.863 93.3991 134.468L21.7495 178.723V206.31C22.9875 206.34 24.2121 206.03 25.3066 205.41L113.432 151.032C113.841 150.843 114.195 150.539 114.456 150.153C114.718 149.766 114.877 149.312 114.917 148.836V144.654C114.88 144.175 114.723 143.716 114.461 143.325C114.199 142.935 113.844 142.628 113.432 142.437Z" fill="#263238"/>
<path d="M93.399 134.468L5.27356 188.846C4.84585 189.003 4.47464 189.299 4.21183 189.693C3.94902 190.086 3.80774 190.558 3.80774 191.042C3.80774 191.526 3.94902 191.998 4.21183 192.391C4.47464 192.785 4.84585 193.081 5.27356 193.238L18.1923 201.227C19.2936 201.83 20.5127 202.144 21.7494 202.144C22.9861 202.144 24.2052 201.83 25.3065 201.227L113.432 146.85C113.86 146.693 114.231 146.397 114.494 146.003C114.756 145.609 114.898 145.137 114.898 144.654C114.898 144.17 114.756 143.698 114.494 143.304C114.231 142.911 113.86 142.615 113.432 142.458L100.533 134.489C99.4304 133.88 98.2086 133.561 96.9682 133.557C95.7277 133.554 94.5043 133.866 93.399 134.468Z" fill="#455A64"/>
<path d="M285.422 258.533L134.071 165.066C133.567 164.813 133.008 164.711 132.455 164.77C131.901 164.829 131.372 165.047 130.924 165.401L13.6582 239.292C12.3258 240.179 11.2128 241.397 10.4134 242.843C9.61391 244.288 9.15151 245.918 9.06529 247.595V267.526C9.00696 268.117 9.09767 268.714 9.32796 269.255C9.55825 269.796 9.91968 270.26 10.3747 270.601L161.726 364.068C162.23 364.321 162.789 364.423 163.343 364.364C163.896 364.305 164.425 364.087 164.873 363.733L282.139 289.842C283.438 288.944 284.519 287.729 285.294 286.296C286.069 284.864 286.515 283.255 286.595 281.602V261.608C286.675 261.03 286.608 260.44 286.401 259.899C286.195 259.358 285.857 258.886 285.422 258.533Z" fill="#2C88D9"/>
<g opacity="0.7">
<path opacity="0.7" d="M285.422 258.533L134.071 165.066C133.567 164.813 133.008 164.711 132.455 164.77C131.901 164.829 131.372 165.047 130.924 165.401L13.6582 239.292C12.3258 240.179 11.2128 241.397 10.4134 242.843C9.61391 244.288 9.15151 245.918 9.06529 247.595V267.526C9.00696 268.117 9.09767 268.714 9.32796 269.255C9.55825 269.796 9.91968 270.26 10.3747 270.601L161.726 364.068C162.23 364.321 162.789 364.423 163.343 364.364C163.896 364.305 164.425 364.087 164.873 363.733L282.139 289.842C283.438 288.944 284.519 287.729 285.294 286.296C286.069 284.864 286.515 283.255 286.595 281.602V261.608C286.675 261.03 286.608 260.44 286.401 259.899C286.195 259.358 285.857 258.886 285.422 258.533Z" fill="white"/>
</g>
<path d="M161.726 364.005L10.3747 270.601C9.92122 270.259 9.5609 269.794 9.33079 269.254C9.10067 268.713 9.00906 268.117 9.06531 267.526V247.595C9.13429 245.81 9.64701 244.077 10.5506 242.575L161.902 336.043C160.998 337.537 160.485 339.263 160.417 341.041V360.973C160.368 361.557 160.463 362.144 160.693 362.676C160.922 363.209 161.279 363.667 161.726 364.005Z" fill="#2C88D9"/>
<g opacity="0.5">
<path opacity="0.5" d="M161.726 364.005L10.3747 270.601C9.92122 270.259 9.5609 269.794 9.33079 269.254C9.10067 268.713 9.00906 268.117 9.06531 267.526V247.595C9.13429 245.81 9.64701 244.077 10.5506 242.575L161.902 336.043C160.998 337.537 160.485 339.263 160.417 341.041V360.973C160.368 361.557 160.463 362.144 160.693 362.676C160.922 363.209 161.279 363.667 161.726 364.005Z" fill="white"/>
</g>
<g opacity="0.5">
<path opacity="0.5" d="M160.338 360.931V341.02C160.416 339.364 160.86 337.751 161.635 336.314C162.41 334.878 163.493 333.659 164.795 332.759L282.061 258.868C282.484 258.464 283.016 258.213 283.58 258.15C284.145 258.088 284.713 258.218 285.204 258.522C285.696 258.825 286.085 259.287 286.317 259.841C286.55 260.395 286.612 261.013 286.497 261.608V281.518C286.42 283.175 285.975 284.788 285.201 286.224C284.426 287.661 283.343 288.879 282.041 289.78L164.775 363.671C164.349 364.07 163.817 364.316 163.254 364.376C162.69 364.435 162.124 364.305 161.633 364.003C161.142 363.702 160.751 363.243 160.516 362.692C160.28 362.141 160.211 361.526 160.319 360.931H160.338Z" fill="#2C88D9"/>
</g>
<path d="M296.387 131.268L161.707 48.133C161.249 47.9414 160.754 47.8792 160.268 47.9524C159.781 48.0257 159.321 48.232 158.931 48.5513L142.748 58.5276C140.051 60.4104 138.144 63.3435 137.432 66.7051L119.432 177.866C119.178 179.434 119.432 180.522 120.194 180.961L254.874 264.097C255.335 264.288 255.833 264.35 256.323 264.277C256.812 264.204 257.275 263.998 257.669 263.678L273.793 253.702C276.489 251.822 278.4 248.899 279.129 245.545L297.149 134.364C297.422 132.795 297.149 131.708 296.387 131.268Z" fill="#2C88D9"/>
<g opacity="0.7">
<path opacity="0.7" d="M296.387 131.268L161.707 48.133C161.249 47.9414 160.754 47.8792 160.268 47.9524C159.781 48.0257 159.321 48.232 158.931 48.5513L142.748 58.5276C140.051 60.4104 138.144 63.3435 137.432 66.7051L119.432 177.866C119.178 179.434 119.432 180.522 120.194 180.961L254.874 264.097C255.335 264.288 255.833 264.35 256.323 264.277C256.812 264.204 257.275 263.998 257.669 263.678L273.793 253.702C276.489 251.822 278.4 248.899 279.129 245.545L297.149 134.364C297.422 132.795 297.149 131.708 296.387 131.268Z" fill="white"/>
</g>
<path d="M254.151 261.001C253.897 262.591 254.151 263.636 254.933 264.097L120.253 180.961C119.549 180.522 119.237 179.434 119.471 177.887L137.471 66.7051C137.805 64.9999 138.471 63.3893 139.426 61.9784L274.126 145.114C273.158 146.517 272.491 148.13 272.171 149.84L254.151 261.001Z" fill="#2C88D9"/>
<g opacity="0.5">
<path opacity="0.5" d="M254.151 261.001C253.897 262.591 254.151 263.636 254.933 264.097L120.253 180.961C119.549 180.522 119.237 179.434 119.471 177.887L137.471 66.7051C137.805 64.9999 138.471 63.3893 139.426 61.9784L274.126 145.114C273.158 146.517 272.491 148.13 272.171 149.84L254.151 261.001Z" fill="white"/>
</g>
<g opacity="0.5">
<path opacity="0.5" d="M257.708 263.678L273.833 253.702C276.528 251.822 278.44 248.899 279.168 245.545L297.149 134.364C297.403 132.795 297.149 131.707 296.367 131.268C295.907 131.077 295.408 131.015 294.919 131.088C294.43 131.161 293.966 131.367 293.572 131.687L277.429 141.663C274.744 143.55 272.84 146.471 272.113 149.819L254.151 261.001C253.897 262.57 254.151 263.657 254.933 264.097C255.391 264.284 255.886 264.344 256.371 264.271C256.857 264.198 257.317 263.994 257.708 263.678Z" fill="#2C88D9"/>
</g>
<path d="M229.135 330.626C228.903 330.62 228.674 330.585 228.451 330.521C227.822 330.322 227.293 329.865 226.978 329.25C226.663 328.635 226.588 327.911 226.77 327.237L236.796 290.574C236.884 290.241 237.032 289.929 237.234 289.657C237.435 289.385 237.685 289.159 237.969 288.992C238.252 288.825 238.564 288.719 238.886 288.682C239.209 288.645 239.534 288.677 239.845 288.776C240.469 288.975 240.995 289.428 241.31 290.039C241.624 290.649 241.702 291.367 241.526 292.038L231.499 328.722C231.351 329.271 231.04 329.753 230.614 330.097C230.187 330.44 229.668 330.626 229.135 330.626Z" fill="#37474F"/>
<path d="M254.914 314.71C254.68 314.74 254.444 314.74 254.21 314.71C253.581 314.511 253.052 314.054 252.737 313.439C252.422 312.823 252.347 312.1 252.529 311.426L262.555 274.763C262.639 274.423 262.785 274.104 262.985 273.825C263.186 273.546 263.436 273.313 263.722 273.14C264.007 272.966 264.323 272.856 264.649 272.814C264.975 272.773 265.306 272.802 265.622 272.9C265.937 272.998 266.232 273.162 266.487 273.383C266.742 273.605 266.954 273.878 267.109 274.188C267.264 274.498 267.359 274.838 267.39 275.189C267.42 275.539 267.384 275.892 267.285 276.227L257.279 312.911C257.11 313.438 256.792 313.896 256.367 314.219C255.943 314.541 255.434 314.713 254.914 314.71Z" fill="#37474F"/>
<path d="M295.058 255.668C295.013 255.194 294.852 254.741 294.591 254.356C294.331 253.97 293.979 253.665 293.572 253.472L280.653 245.504C279.552 244.901 278.333 244.587 277.096 244.587C275.86 244.587 274.641 244.901 273.539 245.504L185.414 299.881C185.01 300.076 184.661 300.381 184.403 300.767C184.146 301.153 183.989 301.605 183.948 302.077V306.26C183.989 306.732 184.146 307.185 184.403 307.57C184.661 307.956 185.01 308.262 185.414 308.456L198.333 316.446C199.434 317.048 200.653 317.362 201.89 317.362C203.126 317.362 204.345 317.048 205.447 316.446L293.572 262.068C293.979 261.875 294.331 261.57 294.591 261.184C294.852 260.798 295.013 260.346 295.058 259.872V255.668Z" fill="#37474F"/>
<path d="M293.572 253.472L280.653 245.504C279.552 244.901 278.333 244.587 277.096 244.587C275.86 244.587 274.641 244.901 273.539 245.504L201.89 289.759V317.345C203.128 317.375 204.352 317.066 205.447 316.446L293.572 262.068C293.979 261.875 294.33 261.57 294.591 261.184C294.852 260.798 295.013 260.346 295.058 259.872V255.689C295.016 255.211 294.857 254.754 294.596 254.365C294.335 253.975 293.982 253.667 293.572 253.472Z" fill="#263238"/>
<path d="M273.539 245.504L185.414 299.881C184.986 300.038 184.615 300.334 184.352 300.728C184.089 301.122 183.948 301.593 183.948 302.077C183.948 302.561 184.089 303.033 184.352 303.427C184.615 303.82 184.986 304.116 185.414 304.273L198.333 312.242C199.434 312.844 200.653 313.158 201.89 313.158C203.126 313.158 204.345 312.844 205.447 312.242L293.572 257.864C294 257.707 294.371 257.411 294.634 257.017C294.897 256.624 295.038 256.152 295.038 255.668C295.038 255.184 294.897 254.712 294.634 254.319C294.371 253.925 294 253.629 293.572 253.472L280.653 245.504C279.552 244.901 278.333 244.587 277.096 244.587C275.86 244.587 274.641 244.901 273.539 245.504Z" fill="#455A64"/>
<path d="M153.518 356.351C146.658 372.643 138.879 376.157 133.758 372.037C130.709 369.59 130.182 363.964 129.107 358.651C127.579 352.013 125.281 345.605 122.266 339.577C118.905 332.864 116.129 326.819 109.445 320.608C108.494 319.787 107.496 319.033 106.455 318.349C102.546 315.693 93.2037 309.878 86.1091 304.566L104.54 279.887C107.511 284.108 110.743 288.112 114.214 291.871C115.078 292.688 116.104 293.283 117.214 293.613C118.325 293.943 119.491 293.998 120.624 293.774C124.944 293.544 129.986 293.774 133.876 297.957C137.765 302.14 135.967 306.428 139.25 313.748C142.534 321.068 150.645 329.977 154.202 336.105C157.759 342.233 155.296 352 153.518 356.351Z" fill="#FFA8A7"/>
<path d="M116.853 293.398C116.69 293.363 116.533 293.307 116.384 293.23C116.989 292.436 119.354 293.565 120.683 293.502C125.003 293.272 130.24 293.502 134.13 297.874C138.019 302.245 136.377 306.407 139.641 313.727C142.905 321.047 151.075 329.789 154.632 335.938C158.189 342.087 155.648 352.126 153.85 356.392C147.009 372.685 138.742 376.512 133.622 372.392C130.592 369.945 129.85 363.922 128.794 358.609C127.295 352 125.023 345.62 122.032 339.619C118.67 332.905 115.719 327.07 109.054 320.796C108.703 320.482 106.846 319.332 107.198 318.704L107.589 318.997C114.82 315.086 119.393 297.037 116.853 293.398Z" fill="#2C88D9"/>
<path opacity="0.15" d="M155.511 351.164C155.09 352.952 154.535 354.7 153.85 356.392C147.009 372.685 138.742 376.512 133.622 372.392C131.826 370.592 130.632 368.211 130.221 365.616C131.726 360.324 135.283 355.66 141.674 350.578C147.615 345.893 153.42 345.893 155.511 351.164Z" fill="#2A2A2A"/>
<path opacity="0.15" d="M120.683 293.607C125.002 293.377 130.24 293.607 134.13 297.978C137.393 301.575 136.768 305.173 138.429 310.527C134.331 309.654 130.525 307.625 127.405 304.651C124.285 301.676 121.964 297.863 120.683 293.607Z" fill="#2A2A2A"/>
<path d="M36.3492 231.742C44.2647 224.443 54.3496 215.491 78.6041 208.025C104.109 200.161 124.182 193.175 127.465 188.156L220.32 224.589L142.749 258.575L92.5979 264.327L109.738 283.923C107.491 296.619 90.8975 309.021 90.8975 309.021C77.8028 300.948 68.871 296.932 45.9455 281.1C38.6555 276.039 31.6391 267.171 29.5869 257.278C28.3361 251.046 28.4338 239.041 36.3492 231.742Z" fill="#455A64"/>
<path d="M128.657 238.058L136.143 239.773C109.602 254.162 83.0017 267.652 74.0504 280.012C70.7624 284.462 68.6197 289.754 67.8353 295.364C65.7832 294.109 63.6724 292.833 61.4639 291.369C62.2834 285.854 64.4097 280.655 67.6399 276.269C76.5716 263.887 102.116 252.447 128.657 238.058Z" fill="#37474F"/>
<path d="M84.8975 250.753C92.3634 256.797 93.0279 256.484 97.3082 254.016C101.588 251.548 128.579 238.058 128.579 238.058C124.533 228.249 123.713 219.423 126.625 211.329L134.794 210.932L142.612 258.575L92.598 264.327C88.6891 259.872 81.6922 251.778 75.1449 247.888C71.0886 245.352 66.429 244.138 61.7374 244.395C69.8288 242.408 77.412 244.688 84.8975 250.753Z" fill="#37474F"/>
<path d="M223.428 365.427C222.314 383.247 216.157 389.437 210.001 387.471C206.366 386.321 204.02 381.197 201.304 376.659C197.714 371.001 193.472 365.85 188.678 361.328C183.362 356.288 178.769 351.645 170.502 348.319C169.346 347.896 168.164 347.56 166.964 347.315C162.43 346.291 151.778 344.304 143.394 341.982L153.029 311.112C157.081 314.179 161.283 317.013 165.616 319.604C166.695 320.044 167.852 320.218 169.003 320.113C170.153 320.008 171.267 319.626 172.261 318.997C176.17 317.178 181.017 315.484 186.059 318.035C191.101 320.587 190.789 325.209 196.222 330.835C201.655 336.461 212.17 341.815 217.506 346.249C222.842 350.683 223.721 360.763 223.428 365.427Z" fill="#FFA8A7"/>
<path d="M168.625 320.127H168.156C168.469 319.144 171.068 319.332 172.28 318.767C176.189 316.968 181.27 315.295 186.313 317.868C191.355 320.44 191.199 325.041 196.632 330.667C202.066 336.293 212.581 341.48 217.916 345.914C223.252 350.348 224.131 360.722 223.779 365.386C222.646 383.205 216.138 389.877 210.001 387.911C206.365 386.739 203.727 381.385 200.991 376.805C197.444 371.155 193.241 366.011 188.482 361.495C183.147 356.455 178.495 352.084 170.228 348.759C169.778 348.591 167.668 348.194 167.785 347.504L168.254 347.608C173.765 341.208 172.202 322.594 168.625 320.127Z" fill="#2C88D9"/>
<path opacity="0.15" d="M223.643 359.885C223.832 361.718 223.884 363.565 223.799 365.407C222.665 383.226 216.157 389.897 210.02 387.932C207.752 386.912 205.858 385.128 204.626 382.849C204.313 377.328 206.15 371.639 210.489 364.486C214.535 357.856 219.968 355.744 223.643 359.885Z" fill="#2A2A2A"/>
<path opacity="0.15" d="M172.241 318.704C176.15 316.906 181.232 315.233 186.274 317.805C190.515 319.897 191.082 323.577 194.404 328.032C190.268 328.737 186.032 328.243 182.134 326.603C178.237 324.962 174.821 322.235 172.241 318.704Z" fill="#2A2A2A"/>
<path d="M74.0503 280.012C83.0016 267.652 109.601 254.162 136.143 239.773C136.143 239.773 122.012 221.284 127.152 197.128L220.32 224.589C220.907 237.619 217.076 254.748 210.235 264.327C204.841 271.898 191.356 282.397 177.889 287.751C169.485 291.076 151.759 297.141 139.583 301.262L156.058 310.966C159.264 328.785 146.443 344.011 146.443 344.011C129.185 338.741 121.035 338.05 95.725 327.405C82.3371 321.779 75.2229 317.429 71.6268 312.263C66.7407 305.256 65.1185 292.394 74.0503 280.012Z" fill="#455A64"/>
<path d="M137.608 296.368C139.309 297.141 142.495 298.919 144.078 299.798C140.071 301.136 139.582 301.262 139.582 301.262C131.393 297.079 125.999 293.565 119.569 293.021C124.69 291.515 128.266 292.08 137.608 296.368Z" fill="#37474F"/>
<path d="M223.799 18.4761C230.542 19.8356 233.845 28.9334 234.099 41.7749C234.412 57.1889 241.467 62.4176 242.757 71.0553C244.712 84.5033 239.376 89.3555 231.48 91.6561C234.627 84.3151 231.07 80.174 231.07 80.174C231.07 80.174 232.79 89.6901 226.496 93.7476C220.203 97.805 209.766 97.0939 204.998 95.839C196.007 93.392 192.997 89.8784 192.997 89.8784C192.997 89.8784 186.489 96.1527 174.391 92.9528C162.293 89.7529 156.684 76.2212 163.094 67.5626C169.505 58.9039 188.072 15.8828 188.072 15.8828L223.799 18.4761Z" fill="#37474F"/>
<path d="M174.919 90.1712C164.189 89.7738 154.065 89.7738 133.563 112.403C119.882 127.566 96.4286 163.853 96.4286 163.853L118.299 186.692C129.595 170.88 141.615 155.32 159.635 132.419L174.919 90.1712Z" fill="#FFA8A7"/>
<path d="M141.361 148.878C134.345 132.147 141.791 121.104 145.798 115.143C153.85 103.243 174.919 90.1712 174.919 90.1712C182.841 89.8163 190.776 89.949 198.685 90.5686C206.604 91.1624 214.384 93.1112 221.727 96.341L232.438 103.285C226.125 109.559 221.884 122.108 221.141 130.285C219.382 149.966 224.522 155.885 224.522 155.885C224.522 155.885 222.021 172.616 220.731 181.17C219.987 187.333 219.948 193.57 220.613 199.742C222.568 214.006 223.799 221.033 223.623 224.84C223.623 226.68 223.369 229.901 220.203 230.863C186.372 241.091 136.025 215.638 124.846 190.561C126.644 184.789 134.618 174.08 136.768 167.952C139.25 160.695 140.54 160.319 141.361 148.878Z" fill="#FAFAFA"/>
<path d="M167.081 155.968C167.081 155.968 172.808 166.426 188.306 166.154C203.805 165.882 208.457 154.086 208.457 154.086C208.457 154.086 207.245 169.939 188.678 170.211C170.111 170.483 167.081 155.968 167.081 155.968Z" fill="#E0E0E0"/>
<path d="M212.366 78.7519C212.366 78.7519 164.443 48.3003 161.746 46.2298C159.216 44.7052 157.064 42.5536 155.472 39.9554C152.677 34.3503 153.146 28.6615 155.179 22.7009C156.378 19.5393 158.07 16.6186 160.182 14.0632C164.528 8.07316 170.637 3.82844 177.518 2.01642C190.496 -2.16649 206.385 0.0713496 216.607 9.54564C220.566 13.1025 223.752 17.5408 225.942 22.551C228.133 27.5612 229.276 33.0226 229.291 38.5541C228.431 60.9536 213.714 71.369 212.366 78.7519Z" fill="#37474F"/>
<path d="M168.84 20.7558C165.479 22.3662 158.482 36.0653 160.26 60.2843C161.648 79.212 168.274 83.2903 171.713 84.3779C175.369 85.639 179.24 86.0176 183.049 85.4864V93.3084C174.997 106.61 193.994 111.483 212.366 93.7476C212.366 93.7476 213.343 77.6434 213.147 68.3992C213.147 68.3992 219.304 71.9756 224.131 66.9142C226.306 64.6053 227.737 61.6144 228.215 58.3761C228.693 55.1378 228.193 51.8207 226.789 48.9068C225.932 47.4043 224.711 46.1776 223.256 45.3566C221.801 44.5356 220.165 44.1508 218.522 44.2429C216.766 44.1906 215.047 44.7853 213.653 45.9275C212.258 47.0698 211.272 48.6901 210.861 50.5172C210.196 54.7001 206.502 55.5158 204.587 52.3786C202.48 48.4613 201.616 43.9193 202.124 39.4325C189.206 39.9972 172.222 33.1581 168.84 20.7558Z" fill="#FFA8A7"/>
<path d="M180.02 69.2357C180.214 69.8868 180.635 70.4327 181.196 70.76C181.756 71.0873 182.413 71.1707 183.03 70.993C183.647 70.8152 184.175 70.3899 184.507 69.8056C184.838 69.2212 184.946 68.5227 184.808 67.8554C184.456 66.4332 183.459 67.0815 182.15 67.4789C180.84 67.8763 179.668 67.7299 180.02 69.2357Z" fill="#B16668"/>
<path d="M183.049 85.4863C195.753 83.0393 207.187 75.6983 208.672 69.8422C208.802 73.4292 207.696 76.9423 205.564 79.7139C200.659 85.6536 183.049 89.7738 183.049 89.7738V85.4863Z" fill="#F28F8F"/>
<path d="M184.886 49.2623C184.73 49.6502 184.649 50.0676 184.646 50.4899C184.644 50.9121 184.72 51.3305 184.872 51.7205C185.023 52.1105 185.246 52.4641 185.527 52.7603C185.808 53.0565 186.142 53.2895 186.509 53.4453C187.25 53.7289 188.066 53.6881 188.78 53.3318C189.493 52.9754 190.047 52.3323 190.32 51.542C190.468 51.1966 190.544 50.8204 190.542 50.4402C190.539 50.0599 190.459 49.6849 190.306 49.3417C190.153 48.9984 189.931 48.6954 189.657 48.454C189.382 48.2126 189.061 48.0387 188.717 47.9447C188.387 47.7517 188.023 47.6325 187.648 47.5945C187.274 47.5566 186.896 47.6005 186.537 47.7238C186.179 47.847 185.848 48.047 185.564 48.3115C185.28 48.576 185.05 48.8995 184.886 49.2623Z" fill="#263238"/>
<path d="M164.775 49.4924C164.832 50.3245 165.196 51.0982 165.786 51.6434C166.376 52.1886 167.144 52.4606 167.922 52.3995C168.699 52.3385 169.422 51.9495 169.932 51.318C170.441 50.6865 170.695 49.8643 170.638 49.0323C170.521 47.2546 169.133 46.5435 167.531 46.669C165.928 46.7945 164.658 47.7147 164.775 49.4924Z" fill="#263238"/>
<path d="M179.883 46.0834L178.417 63.4215L168.762 60.7026C170.111 56.5197 177.088 47.6938 179.883 46.0834Z" fill="#F28F8F"/>
<path d="M164.247 43.3017L170.541 40.8129C170.397 40.3775 170.173 39.9772 169.883 39.6354C169.592 39.2937 169.241 39.0173 168.85 38.8225C168.459 38.6278 168.035 38.5185 167.604 38.5011C167.173 38.4838 166.742 38.5587 166.339 38.7214C165.522 39.073 164.857 39.7357 164.471 40.5816C164.084 41.4276 164.005 42.3967 164.247 43.3017Z" fill="#263238"/>
<path d="M192.763 45.0795L186.567 42.3396C186.708 41.8924 186.933 41.4808 187.228 41.1303C187.523 40.7797 187.883 40.4977 188.284 40.3017C188.685 40.1057 189.12 39.9998 189.561 39.9906C190.001 39.9814 190.439 40.0691 190.847 40.2482C191.688 40.6325 192.357 41.3503 192.714 42.251C193.072 43.1517 193.089 44.1654 192.763 45.0795Z" fill="#263238"/>
<path d="M100.709 132.293C100.709 132.293 101.393 129.511 98.3832 126.019C95.3733 122.526 91.2495 119.452 90.9759 112.341L85.6598 114.328L91.1908 130.432L100.709 132.293Z" fill="#2C88D9"/>
<path opacity="0.75" d="M100.709 132.293C100.709 132.293 101.393 129.511 98.3832 126.019C95.3733 122.526 91.2495 119.452 90.9759 112.341L85.6598 114.328L91.1908 130.432L100.709 132.293Z" fill="white"/>
<path d="M100.709 132.293C100.709 132.293 106.435 130.557 117.439 135.368C128.442 140.178 137.218 145.344 159.303 149.255L152.97 151.639L96.4872 136.622L100.709 132.293Z" fill="#2C88D9"/>
<path opacity="0.75" d="M100.709 132.293C100.709 132.293 106.435 130.557 117.439 135.368C128.442 140.178 137.218 145.344 159.303 149.255L152.97 151.639L96.4872 136.622L100.709 132.293Z" fill="white"/>
<path d="M159.303 149.255L167.394 223.648L161.062 226.032L152.97 151.639L159.303 149.255Z" fill="#2C88D9"/>
<path opacity="0.8" d="M159.303 149.255L167.394 223.648L161.062 226.032L152.97 151.639L159.303 149.255Z" fill="white"/>
<path opacity="0.1" d="M159.303 149.255L167.394 223.648L161.062 226.032L152.97 151.639L159.303 149.255Z" fill="#2A2A2A"/>
<g opacity="0.1">
<path opacity="0.1" d="M90.3113 116.189C90.5869 117.763 91.1515 119.263 91.9725 120.602C92.7993 121.94 93.7068 123.218 94.6892 124.429C95.6885 125.593 96.5849 126.853 97.3668 128.194C97.7159 128.849 97.9789 129.553 98.1486 130.285C98.2945 130.974 98.2945 131.688 98.1486 132.377L98.8131 132.628C98.9828 131.774 98.9424 130.887 98.6958 130.055C98.4893 129.257 98.1732 128.496 97.7577 127.796C96.925 126.45 95.9691 125.196 94.9042 124.053C93.8852 122.894 92.9386 121.664 92.0703 120.372C91.2415 119.109 90.6446 117.69 90.3113 116.189Z" fill="#2A2A2A"/>
<path opacity="0.1" d="M90.5262 120.33C90.8616 121.309 91.315 122.237 91.8748 123.091C92.4025 123.969 92.9498 124.806 93.4579 125.684C93.9749 126.543 94.4134 127.454 94.7674 128.403C95.1175 129.324 95.2581 130.32 95.1778 131.31H95.901C95.9175 130.218 95.6967 129.137 95.256 128.152C94.8392 127.195 94.3351 126.284 93.7511 125.433C93.1843 124.597 92.598 123.781 92.0116 122.944C91.4164 122.143 90.9174 121.264 90.5262 120.33Z" fill="#2A2A2A"/>
<path opacity="0.1" d="M137.218 145.344C134.147 144.414 131.126 143.304 128.169 142.018C125.198 140.743 122.305 139.32 119.374 137.94C116.444 136.518 113.376 135.445 110.227 134.74C108.655 134.374 107.062 134.122 105.458 133.987C104.645 133.924 103.828 133.924 103.015 133.987C102.161 134.037 101.327 134.287 100.572 134.719L100.963 135.368C101.611 134.978 102.332 134.749 103.074 134.698C103.854 134.635 104.638 134.635 105.419 134.698C107.001 134.8 108.575 135.016 110.129 135.347C113.256 135.982 116.31 136.978 119.237 138.317C122.169 139.634 125.1 141.014 128.091 142.228C131.075 143.451 134.123 144.491 137.218 145.344Z" fill="#2A2A2A"/>
<path opacity="0.1" d="M122.168 142.018C120.449 141.412 118.768 140.659 117.067 139.927C115.367 139.195 113.686 138.526 111.947 137.835C110.222 137.191 108.451 136.701 106.65 136.371C104.816 136.006 102.934 136.006 101.1 136.371L101.276 137.103C103.018 136.709 104.813 136.659 106.572 136.957C108.358 137.231 110.123 137.65 111.849 138.212C113.589 138.756 115.308 139.404 117.009 140.052C118.709 140.701 120.429 141.475 122.168 142.018Z" fill="#2A2A2A"/>
</g>
<path d="M86.2657 110.877L92.6762 129.951L101.354 209.719L98.1877 210.911L92.4808 187.968L83.119 112.069L86.2657 110.877Z" fill="#2C88D9"/>
<path opacity="0.2" d="M89.5101 131.122L83.119 112.069L92.4808 187.968L98.1878 210.911L89.5101 131.122Z" fill="#2A2A2A"/>
<path d="M101.041 137.626L156.684 152.789L165.361 232.578L162.195 233.77L106.572 218.586L97.8749 138.818L101.041 137.626Z" fill="#2C88D9"/>
<path opacity="0.2" d="M153.518 153.981L162.195 233.77L106.572 218.586L97.8749 138.818L153.518 153.981Z" fill="#2A2A2A"/>
<path opacity="0.35" d="M156.684 152.789L153.518 153.981L162.195 233.77L165.361 232.578L156.684 152.789Z" fill="#2A2A2A"/>
<path d="M97.7966 138.839L89.4316 131.143L98.1093 210.932C98.852 215.282 101.764 217.75 106.494 218.607L97.7966 138.839Z" fill="#2C88D9"/>
<path opacity="0.35" d="M97.7966 138.839L89.4316 131.143L98.1093 210.932C99.0084 215.554 102.018 217.875 106.494 218.607L97.7966 138.839Z" fill="#2A2A2A"/>
<path d="M93.0278 129.804C94.4006 129.57 95.8052 129.672 97.1357 130.104C98.4662 130.535 99.6879 131.283 100.709 132.293C103.015 134.385 103.328 136.727 101.393 137.48L97.7967 138.839L89.4316 131.143L92.5978 129.972L93.0278 129.804Z" fill="#455A64"/>
<path d="M92.676 129.951C92.676 132.941 95.8617 135.451 101.041 137.626L97.7966 138.839C95.9193 138.389 94.1743 137.452 92.7156 136.109C91.2568 134.767 90.129 133.062 89.4316 131.143L92.676 129.951Z" fill="#2C88D9"/>
<path d="M230.913 102.385C244.223 109.35 251.278 115.54 251.22 132.732C251.302 156.116 249.938 179.48 247.135 202.67C246.295 210.116 245.552 219.695 229.545 221.18C208.945 223.062 179.492 221.18 172.143 220.72C167.433 220.406 157.055 219.758 153.518 218.628C142.397 215.386 137.354 207.23 134.325 202.901C132.421 200.669 131.423 197.72 131.55 194.702C131.794 193.783 131.926 192.834 131.941 191.879C131.715 190.954 131.401 190.057 131.002 189.201C130.7 188.181 130.7 187.085 131.002 186.064C131.377 185.203 131.678 184.307 131.901 183.387C132.116 181.463 130.67 179.832 130.201 177.97C130.124 177.698 130.124 177.407 130.201 177.134C130.32 176.84 130.521 176.592 130.776 176.424C131.031 176.255 131.329 176.175 131.628 176.193C134.354 176.258 136.973 177.338 139.035 179.246C145.524 185.06 148.807 191.502 158.814 193.384C161.198 193.845 164.247 193.259 163.954 190.686L163.407 185.604C168.977 187.696 171.225 194.284 175.798 196.061C179.863 197.651 215.532 190.875 215.532 190.875L216.411 147.456C216.411 147.456 215.493 112.027 230.913 102.385Z" fill="#FFA8A7"/>
<path d="M88.5718 156.219C89.1782 159.101 90.0692 161.905 91.2299 164.585C92.0116 166.677 91.523 169.061 90.194 169.437L91.9334 182.76C91.9334 182.76 90.2331 182.76 87.3796 177.824C84.5262 172.888 83.2753 164.564 83.2167 160.109C83.158 155.655 83.7443 147.791 87.4578 146.473L88.5718 156.219Z" fill="#FFA8A7"/>
</svg>
