<svg width="18" height="18" viewBox="0 0 18 18" fill="none" xmlns="http://www.w3.org/2000/svg">
<path fill-rule="evenodd" clip-rule="evenodd" d="M0 9C0 4.0329 4.032 0 9 0C13.977 0 18 4.0329 18 9C18 13.9689 13.977 18 9 18C4.032 18 0 13.9689 0 9ZM8.20811 5.58907C8.20811 5.15797 8.5681 4.79707 9.0001 4.79707C9.43211 4.79707 9.7831 5.15797 9.7831 5.58907V9.56707C9.7831 9.99997 9.43211 10.3501 9.0001 10.3501C8.5681 10.3501 8.20811 9.99997 8.20811 9.56707V5.58907ZM9.00889 13.213C8.56789 13.213 8.21689 12.853 8.21689 12.421C8.21689 11.989 8.56789 11.638 8.99989 11.638C9.44089 11.638 9.79189 11.989 9.79189 12.421C9.79189 12.853 9.44089 13.213 9.00889 13.213Z" fill="#130F26"/>
</svg>
