<svg width="33" height="32" viewBox="0 0 33 32" fill="none" xmlns="http://www.w3.org/2000/svg">
<path fill-rule="evenodd" clip-rule="evenodd" d="M0.55127 16.0093C0.55127 7.178 7.73274 0 16.5513 0C25.3698 0 32.5513 7.178 32.5513 16.0093C32.5513 24.822 25.3698 32 16.5513 32C7.73274 32 0.55127 24.822 0.55127 16.0093ZM22.4208 17.6286C22.5907 17.4588 22.8069 17.1963 22.8532 17.1346C23.1003 16.8104 23.2239 16.4091 23.2239 16.0093C23.2239 15.5601 23.0849 15.1433 22.8223 14.8037C22.8008 14.7822 22.7587 14.7363 22.7037 14.6765C22.601 14.5647 22.4536 14.4042 22.3127 14.2634C21.0463 12.905 17.7412 10.6821 16.0115 10.0029C15.749 9.89638 15.0849 9.66329 14.7296 9.64785C14.3899 9.64785 14.0656 9.72503 13.7567 9.8794C13.3706 10.0955 13.0617 10.4351 12.8918 10.8365C12.7837 11.1143 12.6138 11.9479 12.6138 11.9633C12.4439 12.8741 12.3513 14.356 12.3513 15.9923C12.3513 17.5529 12.4439 18.9715 12.5829 19.8977C12.5868 19.9016 12.6 19.9678 12.6207 20.0707C12.6834 20.3836 12.8141 21.0353 12.9536 21.3025C13.2934 21.9508 13.9574 22.3521 14.6679 22.3521H14.7296C15.193 22.3367 16.1659 21.9354 16.1659 21.9199C17.803 21.2407 21.0308 19.1259 22.3281 17.7212L22.4208 17.6286Z" fill="#3760CA"/>
</svg>
