<svg width="600" height="559" viewBox="0 0 600 559" fill="none" xmlns="http://www.w3.org/2000/svg">
<path d="M553.932 558.94C579.375 558.94 600 549.111 600 536.988C600 524.864 579.375 515.036 553.932 515.036C528.489 515.036 507.863 524.864 507.863 536.988C507.863 549.111 528.489 558.94 553.932 558.94Z" fill="#EBEBEB"/>
<path d="M43.6699 540.135L59.9684 530.733C69.0682 523.307 75.9943 513.561 80.0156 502.526C85.0475 488.653 84.3458 478.108 80.7373 472.815C76.3069 466.3 64.8198 467.442 64.3587 481.155C63.3964 508.179 55.5179 526.924 43.6699 540.135Z" fill="#3760CA"/>
<path opacity="0.2" d="M43.6699 540.135L59.9684 530.733C69.0682 523.307 75.9943 513.561 80.0156 502.526C85.0475 488.653 84.3458 478.108 80.7373 472.815C76.3069 466.3 64.8198 467.442 64.3587 481.155C63.3964 508.179 55.5179 526.924 43.6699 540.135Z" fill="black"/>
<path d="M43.6698 541.137C43.4575 541.135 43.2516 541.065 43.0816 540.938C42.9117 540.811 42.7864 540.633 42.724 540.43C42.6616 540.227 42.6652 540.01 42.7343 539.809C42.8034 539.608 42.9344 539.435 43.1084 539.313C80.7973 513.251 73.5001 476.905 73.4199 476.544C73.3922 476.412 73.3908 476.276 73.4156 476.144C73.4404 476.012 73.4911 475.886 73.5646 475.773C73.6381 475.661 73.7331 475.564 73.8442 475.488C73.9552 475.412 74.0801 475.359 74.2117 475.331C74.3434 475.303 74.4792 475.302 74.6114 475.327C74.7436 475.352 74.8695 475.402 74.9822 475.476C75.0948 475.549 75.1918 475.644 75.2678 475.755C75.3437 475.866 75.3969 475.991 75.4246 476.123C75.4246 476.504 83.1227 514.093 44.3113 540.957C44.1229 541.086 43.8976 541.149 43.6698 541.137V541.137Z" fill="white"/>
<path d="M11.013 559C11.013 559 5.33961 554.389 6.70282 548.134C8.06603 541.879 11.7347 537.389 5.4599 529.329C-0.814888 521.27 -2.559 510.525 4.93867 504.711C10.6521 500.2 19.5732 506.575 22.7807 494.687C25.1463 485.986 24.3444 466.721 35.4305 460.305C46.5167 453.89 53.473 463.553 51.7289 476.624C50.2053 488.312 48.0402 499.559 49.7242 502.686C52.9719 508.7 58.525 507.878 58.2643 518.865C58.0438 529.089 48.361 537.549 48.361 537.549L11.013 559Z" fill="#3760CA"/>
<path d="M29.6372 549.197C29.3922 549.194 29.1562 549.104 28.9722 548.942C28.7882 548.78 28.6685 548.557 28.6349 548.315C25.7681 524.558 32.6443 483.541 38.2575 471.352C38.3048 471.216 38.3805 471.093 38.4795 470.989C38.5785 470.886 38.6985 470.805 38.8315 470.752C38.9645 470.698 39.1073 470.674 39.2503 470.681C39.3934 470.688 39.5334 470.725 39.6608 470.79C39.7805 470.844 39.8882 470.921 39.9774 471.018C40.0667 471.114 40.1359 471.227 40.1807 471.35C40.2256 471.474 40.2452 471.605 40.2386 471.736C40.2319 471.867 40.1991 471.995 40.142 472.113C34.5889 484.142 27.9533 525.28 30.6997 547.994C30.7279 548.257 30.651 548.52 30.4858 548.727C30.3206 548.933 30.0804 549.066 29.8176 549.096L29.6372 549.197Z" fill="white"/>
<path d="M29.0951 530.693C28.9417 530.7 28.7892 530.665 28.6541 530.592C21.6977 527.204 17.2873 515.116 17.1069 514.554C17.0578 514.43 17.0341 514.296 17.0374 514.162C17.0407 514.028 17.0708 513.896 17.126 513.774C17.1811 513.652 17.2602 513.542 17.3586 513.451C17.4569 513.36 17.5725 513.29 17.6985 513.244C17.8246 513.199 17.9584 513.179 18.0923 513.186C18.2261 513.193 18.3572 513.227 18.4777 513.285C18.5982 513.344 18.7058 513.426 18.794 513.527C18.8822 513.628 18.9493 513.745 18.9913 513.873C18.9913 513.993 23.3015 525.701 29.5362 528.728C29.7407 528.827 29.9055 528.993 30.0035 529.198C30.1016 529.403 30.1271 529.635 30.0758 529.856C30.0245 530.078 29.8996 530.275 29.7214 530.416C29.5432 530.557 29.3224 530.634 29.0951 530.633V530.693Z" fill="white"/>
<path d="M28.9748 538.712C28.774 538.712 28.5779 538.65 28.413 538.536C28.2481 538.421 28.1224 538.259 28.0527 538.07C27.9529 537.826 27.9538 537.551 28.0552 537.307C28.1566 537.063 28.3502 536.869 28.594 536.767C40.3015 532.076 47.5987 518.143 47.6789 517.982C47.8012 517.746 48.0125 517.567 48.2662 517.487C48.52 517.406 48.7955 517.429 49.0321 517.551C49.2687 517.674 49.447 517.885 49.5279 518.139C49.6087 518.393 49.5854 518.668 49.4631 518.905C49.1424 519.506 41.7449 533.66 29.4159 538.632C29.2785 538.697 29.1264 538.724 28.9748 538.712V538.712Z" fill="white"/>
<path d="M438.199 430.855C438.199 430.855 429.439 416.662 428.577 401.245C427.715 385.828 431.103 379.413 435.754 377.569C440.405 375.724 440.766 381.398 443.151 384.746C445.537 388.094 450.408 386.189 452.213 375.744C454.017 365.3 460.592 347.678 474.265 344.249C489.3 340.521 481.241 358.163 477.452 365.039C473.663 371.915 470.736 381.298 473.222 383.844C475.708 386.39 479.577 381.678 483.246 386.049C487.716 391.321 473.823 410.307 465.845 414.897L438.199 430.855Z" fill="#3760CA"/>
<path d="M450.208 424.901C450.077 424.896 449.947 424.865 449.828 424.81C449.708 424.755 449.6 424.676 449.511 424.58C449.422 424.483 449.352 424.369 449.307 424.246C449.261 424.122 449.241 423.99 449.246 423.859C450.603 399.059 458.337 375.029 471.699 354.093C471.775 353.984 471.872 353.891 471.984 353.821C472.097 353.75 472.222 353.703 472.353 353.683C472.485 353.662 472.618 353.668 472.747 353.701C472.876 353.733 472.997 353.792 473.102 353.872C473.312 354.028 473.453 354.261 473.494 354.519C473.535 354.778 473.474 355.042 473.323 355.256C460.2 375.886 452.606 399.545 451.271 423.959C451.263 424.091 451.229 424.22 451.172 424.338C451.114 424.457 451.034 424.563 450.935 424.651C450.836 424.738 450.721 424.805 450.597 424.848C450.472 424.891 450.34 424.909 450.208 424.901Z" fill="white"/>
<path d="M451.351 413.053C451.183 413.051 451.019 413.01 450.87 412.933C445.257 409.825 442.149 400.603 442.029 400.223C441.985 400.098 441.966 399.965 441.973 399.833C441.981 399.7 442.014 399.571 442.072 399.451C442.13 399.332 442.211 399.225 442.31 399.137C442.409 399.05 442.525 398.982 442.651 398.94C442.903 398.857 443.178 398.879 443.415 398.999C443.652 399.119 443.831 399.329 443.914 399.581C443.914 399.581 446.921 408.462 451.932 411.169C452.159 411.303 452.326 411.52 452.397 411.774C452.468 412.028 452.438 412.299 452.313 412.532C452.223 412.704 452.083 412.846 451.911 412.939C451.74 413.032 451.545 413.071 451.351 413.053Z" fill="white"/>
<path d="M452.333 406.979C452.111 406.976 451.896 406.9 451.722 406.762C451.547 406.624 451.424 406.432 451.371 406.217C451.338 406.09 451.33 405.959 451.349 405.829C451.367 405.7 451.412 405.576 451.479 405.464C451.546 405.352 451.635 405.254 451.74 405.177C451.846 405.1 451.965 405.044 452.092 405.014C466.566 401.345 471.578 393.767 471.618 393.687C471.689 393.575 471.782 393.478 471.89 393.402C471.999 393.326 472.121 393.272 472.251 393.243C472.38 393.214 472.514 393.211 472.644 393.234C472.775 393.257 472.9 393.305 473.012 393.376C473.123 393.447 473.22 393.54 473.296 393.648C473.373 393.757 473.427 393.879 473.455 394.009C473.484 394.138 473.487 394.272 473.465 394.402C473.442 394.533 473.393 394.658 473.322 394.77C473.102 395.11 467.889 403.069 452.593 406.959L452.333 406.979Z" fill="white"/>
<path d="M220.086 399.701C220.086 399.701 200.86 395.01 199.858 359.005C198.795 320.152 204.569 274.804 181.815 271.136C159.062 267.467 146.432 295.193 146.713 327.57C146.973 355.917 158.4 417.464 220.005 429.532L220.086 399.701Z" fill="#3760CA"/>
<path opacity="0.2" d="M220.086 399.701C220.086 399.701 200.86 395.01 199.858 359.005C198.795 320.152 204.569 274.804 181.815 271.136C159.062 267.467 146.432 295.193 146.713 327.57C146.973 355.917 158.4 417.464 220.005 429.532L220.086 399.701Z" fill="black"/>
<path d="M220.085 425.843H219.905C206.052 423.317 194.766 415.679 186.366 403.17C161.467 366.021 169.306 296.656 171.892 284.548C171.949 284.29 172.105 284.064 172.326 283.918C172.546 283.773 172.814 283.718 173.074 283.766C173.334 283.828 173.56 283.987 173.705 284.211C173.851 284.435 173.905 284.706 173.856 284.969C171.31 296.997 163.512 365.48 188.03 402.047C191.599 407.718 196.307 412.585 201.856 416.34C207.405 420.094 213.674 422.655 220.266 423.859C220.396 423.883 220.521 423.933 220.633 424.005C220.744 424.078 220.84 424.172 220.914 424.282C220.989 424.392 221.041 424.516 221.067 424.646C221.094 424.777 221.094 424.911 221.068 425.042C221.025 425.27 220.903 425.475 220.723 425.622C220.543 425.769 220.317 425.847 220.085 425.843V425.843Z" fill="white"/>
<path d="M220.085 518.243C200.218 520.929 167.962 520.889 149.339 506.214C130.715 491.54 134.604 478.91 141.761 473.637C148.918 468.365 155.132 462.35 142.823 450.642C130.514 438.935 110.748 420.13 104.332 391.923C97.9174 363.716 101.085 346.074 113.675 340.2C125.883 334.506 129.111 343.568 136.589 362.252C144.066 380.937 160.886 364.919 175.28 370.753C189.674 376.586 189.092 388.134 189.994 398.057C190.897 407.981 195.648 410.728 203.807 410.728C211.966 410.728 220.085 415.419 220.085 424.761V518.243Z" fill="#3760CA"/>
<path d="M220.086 485.485C220 485.504 219.911 485.504 219.825 485.485C218.963 485.245 198.415 479.27 168.484 451.785C136.609 422.515 121.574 378.611 121.413 378.17C121.337 377.917 121.36 377.645 121.48 377.409C121.6 377.174 121.806 376.994 122.055 376.907C122.305 376.824 122.577 376.843 122.814 376.959C123.05 377.075 123.231 377.28 123.318 377.529C123.458 377.97 138.353 421.393 169.848 450.302C199.357 477.426 220.146 483.5 220.367 483.561C220.493 483.597 220.611 483.659 220.713 483.741C220.816 483.824 220.902 483.926 220.965 484.041C221.028 484.156 221.068 484.283 221.082 484.414C221.097 484.545 221.085 484.677 221.048 484.804C220.983 485.006 220.854 485.182 220.681 485.305C220.507 485.428 220.298 485.491 220.086 485.485Z" fill="white"/>
<path d="M176.844 458.762C176.642 458.765 176.445 458.705 176.279 458.59C176.114 458.474 175.989 458.31 175.921 458.12C169.486 441.601 168.023 406.257 167.903 404.753C167.897 404.489 167.994 404.232 168.173 404.038C168.353 403.844 168.601 403.726 168.865 403.711C169.127 403.715 169.378 403.815 169.57 403.993C169.763 404.17 169.883 404.412 169.907 404.673C169.907 405.034 171.411 441.18 177.726 457.399C177.774 457.522 177.797 457.654 177.794 457.787C177.791 457.92 177.762 458.05 177.707 458.172C177.653 458.293 177.576 458.402 177.479 458.493C177.382 458.584 177.269 458.655 177.144 458.702C177.048 458.736 176.946 458.757 176.844 458.762V458.762Z" fill="white"/>
<path d="M176.683 482.518C174.835 482.533 172.987 482.439 171.15 482.238C171.018 482.222 170.891 482.18 170.776 482.115C170.66 482.05 170.558 481.963 170.476 481.859C170.395 481.755 170.334 481.635 170.298 481.508C170.262 481.38 170.252 481.246 170.268 481.115C170.284 480.983 170.325 480.856 170.39 480.74C170.455 480.625 170.542 480.523 170.647 480.441C170.751 480.359 170.87 480.299 170.998 480.263C171.125 480.227 171.259 480.217 171.391 480.233C171.571 480.233 190.235 482.358 198.795 473.637C198.884 473.532 198.994 473.446 199.118 473.385C199.242 473.324 199.377 473.289 199.515 473.283C199.653 473.276 199.791 473.299 199.92 473.348C200.049 473.398 200.166 473.473 200.265 473.57C200.363 473.667 200.44 473.783 200.492 473.912C200.543 474.04 200.567 474.177 200.563 474.315C200.558 474.453 200.526 474.589 200.466 474.714C200.407 474.839 200.323 474.95 200.219 475.04C194.024 481.436 183.218 482.518 176.683 482.518Z" fill="white"/>
<path d="M239.891 545.067L428.335 436.248C428.75 436.102 429.11 435.831 429.364 435.472C429.619 435.113 429.755 434.683 429.755 434.243C429.755 433.803 429.619 433.374 429.364 433.015C429.11 432.656 428.75 432.384 428.335 432.239L410.914 422.215C409.835 421.672 408.644 421.389 407.436 421.389C406.228 421.389 405.037 421.672 403.958 422.215L215.453 530.933C215.038 531.079 214.679 531.35 214.424 531.71C214.17 532.069 214.033 532.498 214.033 532.938C214.033 533.378 214.17 533.807 214.424 534.166C214.679 534.526 215.038 534.797 215.453 534.943L232.935 544.967C234.006 545.525 235.193 545.825 236.401 545.843C237.609 545.86 238.804 545.594 239.891 545.067V545.067Z" fill="#E0E0E0"/>
<path d="M423.162 16.1095L253.242 114.223C250.716 115.871 248.614 118.091 247.106 120.704C245.598 123.316 244.726 126.247 244.562 129.258V532.357C244.562 537.89 248.451 540.135 253.242 537.369L423.162 439.255C425.692 437.61 427.796 435.391 429.305 432.778C430.814 430.165 431.683 427.233 431.843 424.22V21.1214C431.843 15.5882 427.974 13.3429 423.162 16.1095Z" fill="#455A64"/>
<path d="M253.242 114.223L423.162 16.1095C427.452 13.6236 431.001 15.1672 431.723 19.4775C431.322 16.7675 430.352 14.1732 428.876 11.865C427.401 9.55685 425.454 7.58721 423.162 6.08566L416.106 2.07613C413.416 0.71129 410.442 0 407.425 0C404.409 0 401.435 0.71129 398.745 2.07613L228.804 100.109C226.245 101.714 224.134 103.942 222.67 106.585L247.108 120.618C248.571 117.996 250.684 115.794 253.242 114.223V114.223Z" fill="#37474F"/>
<path d="M220.084 518.243C220.249 521.255 221.12 524.186 222.628 526.798C224.136 529.41 226.239 531.63 228.764 533.279L235.841 537.288C238.29 538.514 240.971 539.208 243.707 539.325C246.443 539.443 249.173 538.981 251.719 537.97C247.709 539.534 244.522 537.228 244.522 532.276V129.258C244.622 126.234 245.499 123.286 247.068 120.698L222.63 106.665C221.083 109.233 220.208 112.149 220.084 115.145V518.243Z" fill="#263238"/>
<path d="M257.914 167.93L418.552 75.21C421.439 73.5661 423.765 74.9093 423.765 78.2171V376.566C423.668 378.374 423.146 380.134 422.24 381.702C421.334 383.27 420.071 384.601 418.552 385.588L257.974 478.308C255.087 479.972 252.762 478.629 252.762 475.301V176.952C252.853 175.149 253.367 173.394 254.262 171.827C255.157 170.259 256.408 168.925 257.914 167.93V167.93Z" fill="white"/>
<path d="M338.203 80.4424C337.316 81.0245 336.578 81.8067 336.049 82.726C335.52 83.6452 335.214 84.6759 335.155 85.735C335.155 87.7398 336.519 88.4815 338.203 87.4992C339.093 86.9206 339.833 86.1393 340.362 85.2193C340.892 84.2993 341.196 83.2669 341.25 82.2066C341.25 80.262 339.887 79.4801 338.203 80.4424Z" fill="#37474F"/>
<path d="M338.203 446.212C334.699 448.505 331.783 451.591 329.694 455.22C327.604 458.849 326.398 462.92 326.175 467.102C326.175 474.78 331.568 477.907 338.203 474.058C341.707 471.764 344.621 468.678 346.711 465.049C348.8 461.42 350.006 457.35 350.232 453.168C350.272 445.49 344.859 442.363 338.203 446.212Z" fill="#37474F"/>
<path d="M309.355 111.476C307.593 112.646 306.131 114.213 305.086 116.052C304.041 117.891 303.444 119.949 303.341 122.061C303.341 125.951 306.067 127.534 309.355 125.59C311.135 124.431 312.617 122.869 313.68 121.029C314.742 119.19 315.355 117.126 315.469 115.005C315.469 111.115 312.743 109.532 309.355 111.476Z" fill="#37474F"/>
<path d="M324.33 110.153C324.33 112.759 326.335 113.742 328.68 112.358L368.775 89.1631C370.017 88.3875 371.058 87.3296 371.814 86.0754C372.57 84.8213 373.019 83.4065 373.125 81.946C373.125 79.3598 371.12 78.3775 368.775 79.7608L328.68 102.956C327.441 103.73 326.401 104.784 325.645 106.035C324.89 107.285 324.439 108.696 324.33 110.153V110.153Z" fill="#37474F"/>
<path d="M233.636 180.841C235.059 181.768 236.243 183.017 237.093 184.487C237.943 185.956 238.434 187.606 238.528 189.301C238.528 192.429 236.342 193.692 233.636 192.128C232.218 191.198 231.039 189.948 230.193 188.478C229.346 187.009 228.857 185.361 228.765 183.668C228.765 180.56 230.95 179.297 233.636 180.841Z" fill="#37474F"/>
<path d="M233.636 218.491C235.059 219.417 236.243 220.666 237.093 222.136C237.943 223.606 238.434 225.255 238.528 226.951C238.528 230.058 236.342 231.321 233.636 229.777C232.218 228.847 231.039 227.597 230.193 226.128C229.346 224.658 228.857 223.01 228.765 221.317C228.765 218.19 230.95 216.927 233.636 218.491Z" fill="#37474F"/>
<path d="M232.112 181.603C233.535 182.53 234.719 183.778 235.569 185.248C236.419 186.718 236.91 188.368 237.004 190.063C237.004 193.17 234.819 194.433 232.112 192.89C230.69 191.963 229.505 190.714 228.655 189.244C227.806 187.774 227.314 186.125 227.221 184.43C227.241 181.302 229.426 180.099 232.112 181.603Z" fill="#455A64"/>
<path d="M232.112 219.232C233.538 220.161 234.723 221.413 235.573 222.887C236.423 224.36 236.913 226.014 237.004 227.712C237.004 230.82 234.819 232.083 232.112 230.519C230.686 229.596 229.499 228.348 228.649 226.877C227.799 225.407 227.309 223.755 227.221 222.059C227.241 218.952 229.426 217.689 232.112 219.232Z" fill="#455A64"/>
<path d="M456.281 87.6596C456.281 84.3317 453.956 82.9885 451.069 84.6524L431.844 95.7388L290.491 177.373C288.972 178.359 287.709 179.691 286.803 181.259C285.897 182.826 285.375 184.586 285.278 186.394V484.663C285.278 487.991 287.604 489.334 290.491 487.67L431.904 406.016L451.069 394.95C452.587 393.964 453.851 392.632 454.757 391.064C455.663 389.496 456.185 387.737 456.281 385.929V87.6596Z" fill="white"/>
<path d="M458.285 87.6596C458.411 86.6542 458.238 85.634 457.788 84.7265C457.337 83.819 456.629 83.0645 455.752 82.5574C454.874 82.0503 453.867 81.8131 452.856 81.8755C451.844 81.938 450.874 82.2972 450.066 82.9083L431.723 93.5135L289.487 175.709C287.656 176.865 286.134 178.449 285.051 180.324C283.968 182.2 283.358 184.311 283.273 186.474V484.663C283.192 485.664 283.385 486.668 283.829 487.568C284.274 488.469 284.955 489.231 285.799 489.775C286.517 490.193 287.334 490.407 288.164 490.397C289.339 490.36 290.485 490.022 291.492 489.415L433.828 407.219L452.131 396.654C453.951 395.487 455.466 393.9 456.547 392.027C457.629 390.154 458.245 388.049 458.345 385.888L458.285 87.6596ZM431.763 403.791L430.119 404.753L289.568 485.906C289.331 486.088 289.058 486.214 288.766 486.277C288.475 486.339 288.173 486.336 287.884 486.267C287.623 486.107 287.362 485.545 287.362 484.623V186.394C287.466 184.939 287.899 183.526 288.628 182.262C289.358 180.997 290.364 179.915 291.572 179.097L431.983 97.9039L452.03 86.2964C452.267 86.1149 452.54 85.9883 452.832 85.9259C453.123 85.8635 453.425 85.8667 453.714 85.9355C453.975 86.0959 454.236 86.6572 454.236 87.5794V385.929C454.132 387.384 453.699 388.797 452.97 390.061C452.241 391.325 451.234 392.407 450.026 393.226L431.723 403.791H431.763Z" fill="#3760CA"/>
<path d="M370.78 156.964C388.822 146.58 403.357 154.96 403.357 175.789C403.357 196.619 388.762 221.899 370.78 232.203C352.798 242.508 338.203 234.208 338.203 213.398C338.203 192.589 352.798 167.369 370.78 156.964Z" fill="#3760CA"/>
<path d="M370.78 173.323C376.614 169.955 381.345 172.682 381.345 179.337C381.146 183.004 380.087 186.572 378.251 189.753C376.415 192.933 373.856 195.635 370.78 197.641C364.946 201.009 360.215 198.283 360.215 191.627C360.413 187.96 361.473 184.392 363.309 181.212C365.144 178.031 367.704 175.329 370.78 173.323V173.323Z" fill="#3760CA"/>
<path d="M391.368 209.249C391.368 198.182 383.61 193.692 374.007 199.225L367.993 202.693C358.41 208.226 350.632 221.698 350.632 232.764V235.752C356.185 237.576 363.161 236.594 370.679 232.203C379.007 227.066 386.05 220.092 391.268 211.815L391.368 209.249Z" fill="#3760CA"/>
<path opacity="0.7" d="M370.78 173.323C376.614 169.955 381.345 172.682 381.345 179.337C381.146 183.004 380.087 186.572 378.251 189.753C376.415 192.933 373.856 195.635 370.78 197.641C364.946 201.009 360.215 198.283 360.215 191.627C360.413 187.96 361.473 184.392 363.309 181.212C365.144 178.031 367.704 175.329 370.78 173.323V173.323Z" fill="white"/>
<path opacity="0.7" d="M391.368 209.249C391.368 198.182 383.61 193.692 374.007 199.225L367.993 202.693C358.41 208.226 350.632 221.698 350.632 232.764V235.752C356.185 237.576 363.161 236.594 370.679 232.203C379.007 227.066 386.05 220.092 391.268 211.815L391.368 209.249Z" fill="white"/>
<path d="M307.751 278.012L349.67 253.815C351.675 252.712 353.138 253.594 353.138 255.819V257.203C353.075 258.407 352.728 259.58 352.125 260.625C351.522 261.671 350.681 262.559 349.67 263.217L307.751 287.414C305.847 288.517 304.283 287.615 304.283 285.41V284.026C304.348 282.822 304.696 281.65 305.299 280.605C305.901 279.56 306.742 278.672 307.751 278.012V278.012Z" fill="#3760CA"/>
<path opacity="0.1" d="M307.751 278.012L349.67 253.815C351.675 252.712 353.138 253.594 353.138 255.819V257.203C353.075 258.407 352.728 259.58 352.125 260.625C351.522 261.671 350.681 262.559 349.67 263.217L307.751 287.414C305.847 288.517 304.283 287.615 304.283 285.41V284.026C304.348 282.822 304.696 281.65 305.299 280.605C305.901 279.56 306.742 278.672 307.751 278.012V278.012Z" fill="black"/>
<path d="M306.027 307.221L432.846 234.007C433.788 233.446 434.57 233.887 434.57 235.01V249.805C434.535 250.405 434.361 250.989 434.062 251.511C433.763 252.033 433.347 252.478 432.846 252.812L306.027 326.026C305.065 326.588 304.283 326.126 304.283 325.024V310.229C304.318 309.626 304.493 309.039 304.796 308.517C305.099 307.995 305.521 307.551 306.027 307.221V307.221Z" fill="#3760CA"/>
<path opacity="0.2" d="M306.027 307.221L432.846 234.007C433.788 233.446 434.57 233.887 434.57 235.01V249.805C434.535 250.405 434.361 250.989 434.062 251.511C433.763 252.033 433.347 252.478 432.846 252.812L306.027 326.026C305.065 326.588 304.283 326.126 304.283 325.024V310.229C304.318 309.626 304.493 309.039 304.796 308.517C305.099 307.995 305.521 307.551 306.027 307.221V307.221Z" fill="white"/>
<path d="M307.751 343.829L349.67 319.631C351.675 318.528 353.138 319.43 353.138 321.636V323.019C353.076 324.224 352.73 325.398 352.127 326.443C351.524 327.488 350.682 328.376 349.67 329.033L307.751 353.231C305.847 354.354 304.283 353.451 304.283 351.226V349.843C304.351 348.639 304.701 347.468 305.303 346.424C305.905 345.379 306.744 344.49 307.751 343.829V343.829Z" fill="#3760CA"/>
<path opacity="0.1" d="M307.751 343.829L349.67 319.631C351.675 318.528 353.138 319.43 353.138 321.636V323.019C353.076 324.224 352.73 325.398 352.127 326.443C351.524 327.488 350.682 328.376 349.67 329.033L307.751 353.231C305.847 354.354 304.283 353.451 304.283 351.226V349.843C304.351 348.639 304.701 347.468 305.303 346.424C305.905 345.379 306.744 344.49 307.751 343.829V343.829Z" fill="black"/>
<path d="M306.027 373.038L432.846 299.824C433.788 299.263 434.57 299.724 434.57 300.826V315.621C434.535 316.222 434.361 316.806 434.062 317.328C433.763 317.849 433.347 318.295 432.846 318.629L306.027 391.843C305.065 392.404 304.283 391.963 304.283 390.84V376.045C304.318 375.442 304.493 374.856 304.796 374.333C305.099 373.811 305.521 373.367 306.027 373.038V373.038Z" fill="#3760CA"/>
<path opacity="0.2" d="M306.027 373.038L432.846 299.824C433.788 299.263 434.57 299.724 434.57 300.826V315.621C434.535 316.222 434.361 316.806 434.062 317.328C433.763 317.849 433.347 318.295 432.846 318.629L306.027 391.843C305.065 392.404 304.283 391.963 304.283 390.84V376.045C304.318 375.442 304.493 374.856 304.796 374.333C305.099 373.811 305.521 373.367 306.027 373.038V373.038Z" fill="white"/>
<path d="M356.606 381.438L406.724 352.549C408.729 351.426 410.212 352.329 410.212 354.554V370.031C410.147 371.237 409.796 372.411 409.19 373.457C408.584 374.502 407.739 375.389 406.724 376.045L356.606 404.954C354.601 406.056 353.138 405.154 353.138 402.949V387.452C353.207 386.249 353.557 385.078 354.159 384.034C354.762 382.99 355.599 382.101 356.606 381.438Z" fill="#3760CA"/>
<path opacity="0.1" d="M356.606 381.438L406.724 352.549C408.729 351.426 410.212 352.329 410.212 354.554V370.031C410.147 371.237 409.796 372.411 409.19 373.457C408.584 374.502 407.739 375.389 406.724 376.045L356.606 404.954C354.601 406.056 353.138 405.154 353.138 402.949V387.452C353.207 386.249 353.557 385.078 354.159 384.034C354.762 382.99 355.599 382.101 356.606 381.438Z" fill="black"/>
<path d="M475.286 316.123C475.286 316.123 450.668 282.162 449.225 278.032C448.082 274.985 449.225 270.454 449.586 268.349C449.947 266.244 450.267 261.553 450.628 260.33C451.23 258.045 448.283 258.506 446.619 260.591C444.955 262.676 444.394 266.846 443.532 267.527C442.67 268.209 436.114 258.646 432.686 254.236C429.258 249.825 427.113 247.139 425.008 248.783C423.504 249.965 424.627 252.531 427.113 256.3C428.565 258.33 429.903 260.438 431.122 262.615C431.503 263.437 429.458 263.498 428.356 265.202C427.494 266.525 428.356 268.67 427.153 269.692C426.413 270.256 425.905 271.072 425.728 271.985C425.551 272.898 425.715 273.844 426.191 274.644C428.422 278.149 431.3 281.196 434.671 283.625C438.359 286.171 439.843 287.074 442.028 290.542C444.213 294.01 463.819 329.434 465.142 331.559C466.466 333.684 469.012 338.015 472.881 338.135C476.75 338.255 508.425 310.99 510.048 309.627C515.261 305.277 516.925 304.655 517.807 308.565C518.111 309.954 518.339 311.36 518.488 312.775C519.11 317.747 522.498 335.509 522.498 335.509C522.498 335.509 538.536 343.267 551.707 339.518C564.878 335.769 569.328 330.176 569.328 330.176L562.733 319.431C564.517 315 572.756 297.037 575.422 284.467L534.125 277.792C533.283 277.611 531.92 277.27 530.116 276.809C527.85 276.208 522.097 274.223 517.747 278.032C503.553 290.402 475.327 316.123 475.327 316.123" fill="#FFA8A7"/>
<path d="M557.159 524.498L549.762 534.782C553.124 536.352 556.797 537.14 560.507 537.088C567.143 537.329 568.967 535.083 569.207 534.642C570.33 532.236 568.586 527.906 568.105 524.177L557.159 524.498Z" fill="#37474F"/>
<path d="M550.183 529.851C550.183 529.851 541.202 529.269 535.007 528.508C528.813 527.746 523.901 530.753 525.345 533.299C526.788 535.845 530.216 537.97 535.549 539.754C540.099 541.298 545.572 542.401 550.304 543.764C555.035 545.127 558.322 546.911 561.069 545.949C564.136 544.886 565.459 543.664 565.199 541.418C564.529 538.224 563.7 535.066 562.713 531.956L550.183 529.851Z" fill="#37474F"/>
<path d="M569.208 514.174C569.208 514.174 568.085 523.516 568.005 525.52C567.925 527.525 558.884 528.167 557.16 524.498L556.879 513.071L569.208 514.174Z" fill="#F28F8F"/>
<path d="M560.106 519.907L563.333 534.101C563.333 534.101 563.634 535.825 556.257 536.928C548.879 538.03 537.292 533.058 535.307 532.056C533.323 531.054 533.102 529.029 540.359 529.43C547.616 529.831 550.182 529.851 550.182 529.851L547.817 523.576L560.106 519.907Z" fill="#FFA8A7"/>
<path d="M575.302 284.347L580.414 282.924C580.414 282.924 591.099 316.744 592.282 320.012C593.465 323.28 594.808 326.728 592.502 330.757C589.756 335.549 575.302 354.815 575.302 354.815L566.12 345.833L576.545 326.748L567.323 308.104L575.302 284.347Z" fill="#F28F8F"/>
<path d="M522.798 240.423C521.6 238.173 520.991 235.656 521.03 233.107C521.069 230.558 521.753 228.061 523.019 225.848C528.111 216.406 539.458 211.815 552.969 213.559C559.224 214.381 566.602 219.573 570.631 227.332C575.082 235.932 575.503 253.253 576.645 259.809L522.798 240.423Z" fill="#37474F"/>
<path d="M522.438 244.132C522.438 244.132 519.23 250.246 519.792 250.807C520.623 251.293 521.532 251.632 522.478 251.81L522.438 244.132Z" fill="#FFA8A7"/>
<path d="M532.18 224.806C528.692 227.071 522.678 231.241 522.417 244.974C522.136 259.007 524.141 263.638 526.226 265.262C527.629 266.364 535.869 265.803 539.397 264.981C542.925 264.159 553.089 259.127 556.758 251.489C561.068 242.508 560.186 229.437 553.791 225.427C550.536 223.502 546.846 222.436 543.066 222.327C539.286 222.218 535.54 223.071 532.18 224.806V224.806Z" fill="#FFA8A7"/>
<path d="M569.207 330.096C575.382 339.719 581.236 348.139 582.519 359.005C585.165 381.839 576.505 407.941 574.64 424.841C578.146 429.648 580.167 435.377 580.454 441.32C580.454 448.317 569.207 514.173 569.207 514.173C569.207 514.173 561.028 516.659 556.878 513.071L549.16 391.923L553.17 377.168L569.207 330.096Z" fill="#3760CA"/>
<path opacity="0.2" d="M569.207 330.096C575.382 339.719 581.236 348.139 582.519 359.005C585.165 381.839 576.505 407.941 574.64 424.841C578.146 429.648 580.167 435.377 580.454 441.32C580.454 448.317 569.207 514.173 569.207 514.173C569.207 514.173 561.028 516.659 556.878 513.071L549.16 391.923L553.17 377.168L569.207 330.096Z" fill="black"/>
<path d="M549.16 391.923L553.17 377.168C560.846 375.147 568.251 372.205 575.221 368.407C575.221 368.407 571.052 376.005 559.063 380.175L552.869 399.12L552.348 442.523L549.16 391.923Z" fill="#3760CA"/>
<path opacity="0.3" d="M549.16 391.923L553.17 377.168C560.846 375.147 568.251 372.205 575.221 368.407C575.221 368.407 571.052 376.005 559.063 380.175L552.869 399.12L552.348 442.523L549.16 391.923Z" fill="black"/>
<path d="M569.208 330.096C572.516 335.509 580.414 344.731 578.73 353.612C576.726 364.357 570.912 371.915 553.23 377.168L536.631 437.311C536.631 437.311 545.271 445.33 547.918 453.088C550.564 460.847 560.106 519.947 560.106 519.947C560.106 519.947 557.139 524.779 547.817 523.616C547.817 523.616 515.321 449.439 513.035 444.608C510.262 439.715 509.29 434.005 510.289 428.47C511.311 420.691 522.317 335.549 522.317 335.549L569.208 330.096Z" fill="#3760CA"/>
<path opacity="0.2" d="M569.208 330.096C572.516 335.509 580.414 344.731 578.73 353.612C576.726 364.357 570.912 371.915 553.23 377.168L536.631 437.311C536.631 437.311 545.271 445.33 547.918 453.088C550.564 460.847 560.106 519.947 560.106 519.947C560.106 519.947 557.139 524.779 547.817 523.616C547.817 523.616 515.321 449.439 513.035 444.608C510.262 439.715 509.29 434.005 510.289 428.47C511.311 420.691 522.317 335.549 522.317 335.549L569.208 330.096Z" fill="black"/>
<path d="M575.302 284.347L534.005 277.671C533.163 277.491 531.799 277.15 529.995 276.689C529.995 276.689 528.231 302.59 517.626 308.525C517.887 309.768 518.107 311.151 518.308 312.735C518.929 317.706 522.317 335.469 522.317 335.469C522.317 335.469 538.355 343.227 551.526 339.478C564.697 335.729 569.147 330.136 569.147 330.136L562.552 319.39C564.396 314.92 572.696 296.957 575.302 284.347Z" fill="#3760CA"/>
<path opacity="0.7" d="M575.302 284.347L534.005 277.671C533.163 277.491 531.799 277.15 529.995 276.689C529.995 276.689 528.231 302.59 517.626 308.525C517.887 309.768 518.107 311.151 518.308 312.735C518.929 317.706 522.317 335.469 522.317 335.469C522.317 335.469 538.355 343.227 551.526 339.478C564.697 335.729 569.147 330.136 569.147 330.136L562.552 319.39C564.396 314.92 572.696 296.957 575.302 284.347Z" fill="white"/>
<path d="M564.417 315.12C558.932 318.414 553.186 321.25 547.236 323.6C552.637 323.493 557.923 322.031 562.612 319.35L564.417 315.12Z" fill="#3760CA"/>
<path d="M531.158 225.487C531.158 225.487 529.153 238.518 533.885 246.176C533.885 246.176 535.649 240.984 540.039 241.966C544.429 242.949 544.67 248.742 541.583 251.99C540.798 252.901 539.772 253.572 538.623 253.927C537.475 254.282 536.249 254.305 535.087 253.995C535.087 253.995 534.386 263.417 534.005 271.316C533.624 279.215 531.539 296.436 540.42 303.392C549.301 310.349 571.593 312.795 582.038 298.2C587.852 290.081 580.133 275.727 576.545 259.628C573.237 244.833 571.373 222.901 555.676 219.373C539.979 215.844 531.158 225.487 531.158 225.487Z" fill="#37474F"/>
<path d="M588.754 47.444L585.446 49.4487C585.724 48.2718 585.878 47.0691 585.907 45.8602C585.907 39.1442 581.196 36.4378 575.383 39.8459C573.613 40.9132 572.035 42.2683 570.711 43.8554V43.8554C570.711 34.834 564.377 31.1653 556.558 35.676C552.438 38.3629 549.01 41.9832 546.55 46.2432C544.091 50.5031 542.671 55.2827 542.405 60.1943C542.405 60.6554 542.405 61.0964 542.405 61.5375C540.391 61.2841 538.352 61.7529 536.651 62.8606C533.588 64.8568 531.038 67.5473 529.21 70.7136C527.381 73.8799 526.325 77.4329 526.126 81.0839C526.125 81.9327 526.213 82.7793 526.387 83.61L524.623 84.6324C519.832 87.399 515.942 92.7918 515.942 96.661C515.942 100.53 519.832 101.452 524.623 98.6657L588.774 61.6778C593.565 58.9112 597.455 53.5184 597.455 49.6492C597.455 45.78 593.545 44.6574 588.754 47.444Z" fill="#EBEBEB"/>
</svg>
